<svg width="32" height="32" viewBox="0 0 32 32" fill="none" xmlns="http://www.w3.org/2000/svg">
<mask id="mask0_335_6105" style="mask-type:luminance" maskUnits="userSpaceOnUse" x="0" y="0" width="32" height="32">
<path d="M16 32C24.8366 32 32 24.8366 32 16C32 7.16344 24.8366 0 16 0C7.16344 0 0 7.16344 0 16C0 24.8366 7.16344 32 16 32Z" fill="white"/>
</mask>
<g mask="url(#mask0_335_6105)">
<path d="M64.093 -37.3855H-78.377V163.926H64.093V-37.3855Z" fill="#D1FF00"/>
<path d="M17.8331 60.842C12.5703 60.842 7.60869 58.2804 4.56109 53.9892C4.35109 53.6932 4.14789 53.3852 3.95708 53.0732L2.2711 50.3128L0.142693 52.7484C-0.0953064 53.0208 -0.344513 53.2876 -0.597717 53.5404C-3.67212 56.6148 -7.75972 58.3084 -12.1077 58.3084H-12.6049L-12.7393 58.324C-13.4301 58.4032 -14.1337 58.4432 -14.8297 58.4432C-15.2465 58.4432 -15.6713 58.4284 -16.0917 58.3988L-16.2569 58.3872L-16.4221 58.3988C-16.8461 58.4284 -17.2741 58.4432 -17.6945 58.4432C-21.2193 58.4432 -24.6121 57.448 -27.5053 55.5652L-28.3913 54.9884L-29.4125 55.2608C-30.7873 55.6276 -32.1977 55.8136 -33.6049 55.8136H-34.6633L-34.7525 55.8204C-35.2013 55.8544 -35.6561 55.8716 -36.1041 55.8716C-38.1957 55.8716 -40.2197 55.5108 -42.1197 54.7996C-45.4181 53.5648 -48.2749 51.2416 -50.1641 48.2584L-50.9489 47.0192L-52.4081 47.1664C-52.9485 47.2208 -53.4921 47.2484 -54.0233 47.2484H-55.3309C-55.9393 47.2484 -56.5729 47.21 -57.2149 47.134L-57.4893 47.1016L-57.7641 47.1332C-58.5057 47.218 -59.2505 47.2612 -59.9769 47.2612C-60.6853 47.2612 -61.4061 47.2224 -62.1185 47.1464C-70.4121 46.2596 -76.6665 39.3012 -76.6665 30.96V29.9504C-76.6665 29.8156 -76.6649 29.6812 -76.6613 29.5468L-76.6601 29.4888L-76.6613 29.4308C-76.6645 29.2964 -76.6661 29.162 -76.6661 29.0272V28.1236C-76.6661 26.3296 -76.3761 24.5672 -75.8041 22.8852L-75.7189 22.6344L-75.6909 22.3708C-75.3005 18.686 -73.6397 15.2108 -71.0137 12.5848C-69.3669 10.938 -67.3309 9.63717 -65.1257 8.82277L-63.8233 8.34197L-63.6037 6.97117C-63.0665 3.61917 -61.4457 0.447969 -59.0401 -1.95763C-56.7205 -4.27723 -53.6565 -5.87683 -50.4129 -6.46163L-49.7949 -6.57283L-49.3125 -6.97523C-47.4285 -8.54803 -45.2629 -9.70603 -42.8761 -10.418L-42.2605 -10.6016L-41.8213 -11.0704C-41.6817 -11.2196 -41.5409 -11.3648 -41.4033 -11.5028C-37.8613 -15.0448 -33.1217 -16.9952 -28.0573 -16.9952C-24.6389 -16.9952 -21.3105 -16.0944 -18.4321 -14.39L-17.6661 -13.9364L-16.7909 -14.0984C-16.1581 -14.2156 -15.5177 -14.2956 -14.8877 -14.3364C-14.5801 -14.3564 -13.9301 -14.39 -13.0213 -14.39C-9.39691 -14.39 -5.93572 -13.3448 -3.01172 -11.3676L-2.25211 -10.854L-1.34451 -10.984C-0.576111 -11.094 0.206284 -11.15 0.980682 -11.15H2.28828C2.55628 -11.15 2.82908 -11.1432 3.09908 -11.13L3.21587 -11.1244L3.3327 -11.13C3.60189 -11.1432 3.87508 -11.15 4.14388 -11.15H5.45148C6.45588 -11.15 7.47028 -11.0544 8.46667 -10.866L10.1263 -10.552L10.9675 -12.0168C11.6807 -13.2584 12.5583 -14.4044 13.5763 -15.4224C16.6507 -18.4968 20.7387 -20.19 25.0871 -20.1904H26.3947C30.7427 -20.1904 34.8307 -18.4972 37.9055 -15.4224C40.9799 -12.348 42.6731 -8.26003 42.6731 -3.91163V-0.253632L44.2487 0.30957C46.1095 0.974369 47.8307 1.92077 49.3647 3.12277C52.8123 5.82277 55.2259 9.87637 55.9871 14.2436L56.0867 14.8152L56.4387 15.2764C59.0683 18.7228 60.5163 23.0704 60.5163 27.5188C60.5163 32.9456 58.4651 37.9856 54.7407 41.71C51.0823 45.3684 46.1743 47.3832 40.9211 47.3832C40.7803 47.3832 40.6375 47.3816 40.4931 47.378L38.6623 47.3348L38.1555 49.0944C37.6519 50.8424 36.8527 52.4936 35.7799 54.0008C35.2547 54.7388 34.6647 55.4368 34.0263 56.0752C30.9523 59.1492 26.8647 60.8424 22.5163 60.8424H21.1895C20.8955 60.8424 20.5939 60.8344 20.2939 60.818L20.1647 60.8108L20.0355 60.818C19.7391 60.834 19.4383 60.8424 19.1419 60.8424H17.8339L17.8331 60.842Z" fill="#BABCBE"/>
<path d="M32.5152 28.1038C32.0196 28.2722 31.5028 28.3978 30.9712 28.4826C31.082 29.787 31.4176 31.0362 31.9564 32.1738C31.9572 32.175 31.958 32.1762 31.9588 32.1778C32.6596 31.2258 33.1664 30.1474 33.4624 28.9926C33.0692 28.817 32.744 28.5106 32.5148 28.1038H32.5152Z" fill="#D1FF00"/>
<path d="M31.9567 32.1733C30.9963 30.7397 29.7751 29.5165 28.3703 28.5585C28.3459 28.5561 28.3223 28.5529 28.2979 28.5505V29.0269C28.2979 29.6321 28.2163 30.2177 28.0659 30.7753C29.1127 31.5977 30.2507 32.2721 31.4611 32.7921C31.6359 32.5937 31.8027 32.3897 31.9587 32.1781C31.9579 32.1765 31.9575 32.1749 31.9567 32.1733Z" fill="#D1FF00"/>
<path d="M20.6738 31.7313C20.6346 32.0629 20.5842 32.3913 20.521 32.7153C20.6286 32.7877 20.739 32.8593 20.8514 32.9305C22.5226 32.9377 24.0846 33.5645 25.2778 34.6261C25.3906 34.5517 25.5018 34.4749 25.6098 34.3941C25.0726 33.1253 24.689 31.7849 24.4642 30.4009C23.2774 31.0317 21.999 31.4797 20.6734 31.7313H20.6738Z" fill="#D1FF00"/>
<path d="M27.9345 30.6743C27.3625 30.2147 26.8305 29.7187 26.3389 29.1907C26.1889 29.3059 26.0365 29.4179 25.8821 29.5263C26.2073 30.5879 26.7073 31.5751 27.3649 32.4383C27.6697 31.9243 27.9073 31.3659 28.0665 30.7755C28.0229 30.7411 27.9781 30.7091 27.9349 30.6743H27.9345Z" fill="#D1FF00"/>
<path d="M31.7588 20.6718C32.0456 21.0334 32.304 21.4154 32.532 21.8154C32.9212 21.1986 33.3752 20.6234 33.8952 20.1034C34.0184 19.9802 34.1448 19.8614 34.2736 19.7458C33.9812 18.8938 33.6064 18.081 33.1572 17.3162C32.8512 17.3534 32.5496 17.4058 32.2524 17.4742C32.2164 18.579 32.0468 19.6502 31.7588 20.6718Z" fill="#D1FF00"/>
<path d="M30.9713 28.4822C30.9441 28.1634 30.9301 27.8418 30.9301 27.5174C30.9301 26.5358 31.0561 25.5826 31.2953 24.6754C31.0185 24.3826 30.7653 24.0714 30.5361 23.7434C29.9897 25.0478 29.2369 26.2658 28.2981 27.3478V28.509C28.3225 28.5254 28.3465 28.5418 28.3705 28.5586C28.7021 28.591 29.0405 28.609 29.3857 28.609C29.9265 28.609 30.4561 28.5646 30.9717 28.4822H30.9713Z" fill="#D1FF00"/>
<path d="M32.1311 25.4502C32.1771 25.4874 32.2251 25.5222 32.2719 25.5582C32.3923 25.1266 32.5919 24.7674 32.8587 24.501C33.0315 24.3282 33.2319 24.1938 33.4551 24.101C33.2471 23.2958 32.9375 22.5278 32.5319 21.8162C31.9799 22.6914 31.5643 23.6538 31.2947 24.6762C31.5543 24.951 31.8323 25.2106 32.1311 25.4506V25.4502Z" fill="#D1FF00"/>
<path d="M27.6144 28.0789C27.5072 28.1853 27.3968 28.2885 27.2864 28.3913C27.6152 28.4609 27.9528 28.5145 28.298 28.5505V28.5093C28.0744 28.3593 27.8468 28.2157 27.6144 28.0789Z" fill="#D1FF00"/>
<path d="M28.7799 17.7965V18.0005C28.7867 17.9929 28.7919 17.9845 28.7991 17.9773C28.8419 17.9345 28.8907 17.8957 28.9435 17.8597C28.9183 17.5925 28.9047 17.3213 28.9047 17.0473C28.9047 17.0425 28.9047 17.0373 28.9047 17.0325C28.8595 17.0665 28.8167 17.1021 28.7779 17.1401C28.7771 17.2313 28.7767 17.3225 28.7739 17.4129C28.7775 17.5405 28.7791 17.6681 28.7791 17.7965H28.7799Z" fill="#D1FF00"/>
<path d="M31.51 20.283H31.4316C31.4556 20.3098 31.4796 20.337 31.5032 20.3642C31.5056 20.337 31.5088 20.3102 31.51 20.283Z" fill="#D1FF00"/>
<path d="M30.4717 18.2733C30.4717 18.4553 30.4193 18.5893 30.3141 18.6945C30.2209 18.7877 30.0845 18.8581 29.9077 18.9189C30.2009 19.1257 30.4805 19.3525 30.7489 19.5953C30.9949 19.5005 31.2089 19.3785 31.3733 19.2141C31.6045 18.9829 31.7405 18.6705 31.7405 18.2445C31.7405 18.0185 31.7013 17.8181 31.6309 17.6409C31.2273 17.7661 30.8345 17.9209 30.4549 18.1037C30.4657 18.1553 30.4713 18.2113 30.4713 18.2729L30.4717 18.2733Z" fill="#D1FF00"/>
<path d="M29.0516 19.6854C29.034 19.5058 29.0252 19.3266 29.022 19.1482C28.9352 19.1718 28.8516 19.1974 28.7732 19.2258C28.7676 19.511 28.7536 19.7954 28.73 20.0782C28.8136 20.0222 28.9312 19.9806 29.0828 19.9454C29.072 19.859 29.0596 19.773 29.0512 19.6858L29.0516 19.6854Z" fill="#D1FF00"/>
<path d="M28.6643 20.6982C28.6163 21.0674 28.5535 21.4338 28.4751 21.7958C28.7315 21.8686 29.0327 21.9074 29.3855 21.9074C29.4479 21.9074 29.5059 21.9038 29.5655 21.901C29.4515 21.5974 29.3527 21.2866 29.2731 20.9682C28.9771 20.947 28.7735 20.8506 28.6647 20.6978L28.6643 20.6982Z" fill="#D1FF00"/>
<path d="M24.1296 29.1148C24.186 29.1252 24.2429 29.1344 24.3017 29.1412C24.2969 29.0868 24.2944 29.0316 24.29 28.9768C24.2372 29.0236 24.1832 29.0688 24.1296 29.1148Z" fill="#D1FF00"/>
<path d="M25.7164 28.9154C25.8024 28.873 25.886 28.827 25.9652 28.775C25.8388 28.629 25.7156 28.4806 25.5952 28.3298C25.6296 28.527 25.6704 28.7222 25.7164 28.9154Z" fill="#D1FF00"/>
<path d="M25.4053 27.863C25.3993 27.869 25.3925 27.8742 25.3861 27.8802C25.3609 27.9082 25.3377 27.9378 25.3125 27.9658C25.4045 28.0886 25.4993 28.2098 25.5953 28.3302C25.5661 28.1634 25.5397 27.9958 25.5189 27.827C25.4997 27.8186 25.4801 27.8106 25.4609 27.8018C25.4429 27.823 25.4249 27.8438 25.4053 27.8634V27.863Z" fill="#D1FF00"/>
<path d="M24.6339 29.1618C24.5187 29.1618 24.4087 29.1534 24.3015 29.141C24.3395 29.5646 24.3963 29.9842 24.4643 30.4006C24.9539 30.1406 25.4259 29.8466 25.8815 29.5262C25.8199 29.325 25.7655 29.121 25.7163 28.915C25.3975 29.0722 25.0339 29.1614 24.6339 29.1614V29.1618Z" fill="#D1FF00"/>
<path d="M26.556 28.2058C26.484 28.3042 26.4072 28.399 26.322 28.4846C26.2132 28.5934 26.094 28.6902 25.9656 28.775C26.0872 28.9158 26.2116 29.0546 26.3388 29.191C26.6656 28.9398 26.982 28.6738 27.2864 28.3914C27.038 28.3386 26.7944 28.277 26.556 28.2058Z" fill="#D1FF00"/>
<path d="M29.4968 18.6455C29.8048 18.4443 30.1248 18.2635 30.4552 18.1043C30.3864 17.7719 30.1024 17.6487 29.7028 17.6487C29.3884 17.6487 29.134 17.7303 28.9436 17.8599C28.9596 18.0291 28.9812 18.1963 29.0072 18.3623C29.1732 18.4519 29.3372 18.5451 29.4968 18.6455Z" fill="#D1FF00"/>
<path d="M28.9581 16.1194C28.9245 16.4206 28.9057 16.725 28.9053 17.0326C29.1457 16.8522 29.4833 16.735 30.0201 16.735C30.7973 16.735 31.3961 17.0494 31.6313 17.641C31.8357 17.5774 32.0429 17.5226 32.2525 17.4742C32.2573 17.3258 32.2601 17.177 32.2601 17.0274V16.1622C32.2601 16.099 32.2569 16.0362 32.2561 15.973C32.0745 15.7354 31.8845 15.5046 31.6881 15.2798C30.8125 15.655 29.8977 15.9374 28.9581 16.119V16.1194Z" fill="#D1FF00"/>
<path d="M29.0372 18.5566C29.0256 18.4922 29.0168 18.427 29.0068 18.3622C28.9316 18.3214 28.856 18.2822 28.7796 18.2434V18.9694C28.7796 19.037 28.7756 19.1042 28.7744 19.1714C28.8564 19.1046 28.94 19.0402 29.0244 18.9766C29.0256 18.8362 29.0268 18.6958 29.0368 18.5562L29.0372 18.5566Z" fill="#D1FF00"/>
<path d="M29.0249 18.9768C29.0245 19.034 29.0213 19.0908 29.0221 19.148C29.1629 19.1096 29.3101 19.076 29.4525 19.0424C29.6273 19.0028 29.7781 18.9632 29.9077 18.9184C29.7729 18.8232 29.6361 18.732 29.4965 18.6448C29.3357 18.7496 29.1785 18.8604 29.0245 18.9764L29.0249 18.9768Z" fill="#D1FF00"/>
<path d="M29.0832 19.9452C29.1272 20.2928 29.1892 20.6348 29.2728 20.9684C29.3128 20.9712 29.3516 20.9752 29.3948 20.9752C29.752 20.9752 30.0024 20.9008 30.1568 20.746C30.2684 20.6344 30.3304 20.4808 30.3464 20.2828H31.4312C31.3932 20.24 31.3564 20.196 31.3176 20.154C31.136 19.9576 30.9448 19.7728 30.7488 19.5952C30.4576 19.7072 30.1212 19.7804 29.76 19.8312C29.4844 19.87 29.2604 19.9036 29.0828 19.9456L29.0832 19.9452Z" fill="#D1FF00"/>
<path d="M31.0596 21.3402C30.7436 21.6562 30.2516 21.8686 29.5652 21.901C29.8116 22.557 30.1372 23.1746 30.5356 23.7438C30.6048 23.5782 30.672 23.4118 30.7348 23.2434C31.1604 22.4318 31.5052 21.571 31.7588 20.6718C31.676 20.5674 31.5908 20.4646 31.5032 20.3638C31.4704 20.7286 31.3288 21.071 31.0596 21.3402Z" fill="#D1FF00"/>
<path d="M28.1895 22.9009C27.8875 23.8845 27.4715 24.8301 26.9527 25.7201C27.0267 25.9845 27.0663 26.2681 27.0663 26.5661C27.0663 26.9617 26.9927 27.3329 26.8579 27.6649C27.1147 27.7945 27.3663 27.9337 27.6139 28.0793C27.6263 28.0673 27.6391 28.0561 27.6511 28.0437C27.8755 27.8193 28.0903 27.5869 28.2971 27.3485V24.0953C28.2971 23.6877 28.2587 23.2889 28.1891 22.9013L28.1895 22.9009Z" fill="#D1FF00"/>
<path d="M25.9219 27.2361C25.7907 27.4037 25.6551 27.5681 25.5155 27.7297C25.5135 27.7325 25.5115 27.7353 25.5095 27.7381C25.5127 27.7673 25.5151 27.7973 25.5187 27.8265C25.8515 27.9729 26.1979 28.0989 26.5559 28.2057C26.6763 28.0409 26.7787 27.8605 26.8583 27.6645C26.5523 27.5101 26.2403 27.3673 25.9223 27.2361H25.9219Z" fill="#D1FF00"/>
<path d="M25.4561 27.7988C25.4561 27.7988 25.4593 27.8004 25.4609 27.8012C25.4781 27.7808 25.494 27.7596 25.5096 27.738C25.5096 27.738 25.5096 27.7372 25.5096 27.7368C25.4916 27.7576 25.4741 27.7784 25.4561 27.7988Z" fill="#D1FF00"/>
<path d="M27.1355 16.8506V16.8986C27.2495 16.9838 27.3067 17.2006 27.3083 17.5658C27.4787 17.323 27.6563 17.0846 27.8403 16.8506H27.1355Z" fill="#D1FF00"/>
<path d="M28.6556 19.2731C28.6144 19.2915 28.5752 19.3102 28.5392 19.331V18.5906C28.5392 18.447 28.5801 18.3071 28.6517 18.1787C28.2209 17.9699 27.772 17.7958 27.3088 17.6562V20.0906C27.3088 20.2858 27.3277 20.4659 27.3633 20.6323C27.5969 20.3271 27.848 20.0351 28.1208 19.7623C28.2928 19.5903 28.472 19.4287 28.656 19.2731H28.6556Z" fill="#D1FF00"/>
<path d="M27.7053 21.3406C27.6081 21.125 27.4997 20.9154 27.3809 20.7126C27.4441 20.9578 27.5509 21.1674 27.7053 21.3406Z" fill="#D1FF00"/>
<path d="M23.0793 26.1909H22.2017C22.2017 26.2289 22.2045 26.2649 22.2053 26.3021C22.6041 26.3433 22.9988 26.4005 23.388 26.4765C23.2824 26.3841 23.1797 26.2885 23.0793 26.1909Z" fill="#D1FF00"/>
<path d="M24.6148 28.152C24.48 28.152 24.3552 28.1288 24.2412 28.0872C24.2504 28.3848 24.266 28.6816 24.29 28.9764C24.4824 28.8052 24.6712 28.6296 24.8544 28.4468C25.0116 28.2896 25.1644 28.1292 25.3128 27.9652C25.3092 27.9604 25.3056 27.9552 25.302 27.9504C25.1276 28.08 24.9024 28.152 24.6148 28.152Z" fill="#D1FF00"/>
<path d="M22.2053 26.3021C22.0821 26.2893 21.9589 26.2769 21.8353 26.2673C21.7565 26.3413 21.6769 26.4149 21.5969 26.4873V29.0269H20.7717V30.1373C20.7717 30.5149 20.7521 30.8873 20.7217 31.2569C21.9521 30.7217 23.1021 30.0017 24.1305 29.1145C22.9013 28.8861 22.2373 27.8053 22.2057 26.3017L22.2053 26.3021Z" fill="#D1FF00"/>
<path d="M24.2332 27.1214C24.22 27.1126 24.2068 27.1038 24.194 27.095H23.5671C23.5967 27.5786 23.852 27.9458 24.2416 28.0878C24.2356 27.8982 24.2287 27.7086 24.2287 27.5178C24.2287 27.3854 24.2307 27.2534 24.2335 27.1214H24.2332Z" fill="#D1FF00"/>
<path d="M25.302 27.9506C25.3316 27.9286 25.36 27.9054 25.3864 27.8802C25.41 27.8534 25.4328 27.8262 25.456 27.7994C25.3184 27.7378 25.1836 27.6722 25.0508 27.6038C25.1328 27.7206 25.2164 27.8366 25.3016 27.951L25.302 27.9506Z" fill="#D1FF00"/>
<path d="M28.3951 16.8506C28.4719 16.9466 28.5203 17.1774 28.5491 17.3986H28.5683C28.6279 17.309 28.6935 17.2246 28.7703 17.1478C28.7727 17.1454 28.7759 17.143 28.7787 17.1402C28.7787 17.1026 28.7803 17.0654 28.7803 17.0278V16.1506C28.6403 16.1758 28.5003 16.2018 28.3591 16.2226C28.1807 16.4278 28.0079 16.6374 27.8403 16.8506H28.3951Z" fill="#D1FF00"/>
<path d="M28.78 18.001C28.7284 18.0562 28.6868 18.1162 28.6516 18.179C28.6948 18.1998 28.7372 18.2222 28.78 18.2438V18.001Z" fill="#D1FF00"/>
<path d="M27.3084 17.581C27.3084 17.5754 27.3084 17.571 27.3084 17.5654C27.2908 17.5906 27.2732 17.6158 27.2556 17.641C27.2732 17.6462 27.2912 17.6506 27.3088 17.6558V17.5806L27.3084 17.581Z" fill="#D1FF00"/>
<path d="M26.2545 19.2793C26.5565 18.7149 26.8901 18.1677 27.2553 17.6409C27.0421 17.5781 26.8261 17.5229 26.6073 17.4753C26.5009 18.0669 26.3629 18.6497 26.1929 19.2205C26.2133 19.2401 26.2341 19.2593 26.2545 19.2793Z" fill="#D1FF00"/>
<path d="M28.6557 19.2731C28.6933 19.2563 28.7329 19.2407 28.7737 19.2259C28.7737 19.2079 28.7749 19.1899 28.7749 19.1719C28.7345 19.2047 28.6953 19.2395 28.6553 19.2731H28.6557Z" fill="#D1FF00"/>
<path d="M28.6663 20.1293C28.6003 20.1953 28.5684 20.2785 28.5684 20.3885C28.5684 20.5073 28.6024 20.6109 28.6644 20.6981C28.6912 20.4921 28.7132 20.2857 28.7308 20.0781C28.7068 20.0941 28.6851 20.1109 28.6663 20.1293Z" fill="#D1FF00"/>
<path d="M27.3629 20.6322C27.3577 20.6394 27.3521 20.6462 27.3469 20.653C27.3589 20.6726 27.3697 20.693 27.3813 20.7126C27.3745 20.6862 27.3689 20.659 27.3629 20.6318V20.6322Z" fill="#D1FF00"/>
<path d="M27.7053 21.3406C27.9273 21.8322 28.0913 22.355 28.1897 22.901C28.3013 22.5378 28.3949 22.1686 28.4753 21.7958C28.1441 21.7014 27.8905 21.5478 27.7053 21.3406Z" fill="#D1FF00"/>
<path d="M24.2661 26.3608C24.2593 26.4656 24.2528 26.57 24.248 26.6752C24.3272 26.696 24.4073 26.7164 24.4861 26.7388C24.4109 26.614 24.3377 26.488 24.2661 26.3608Z" fill="#D1FF00"/>
<path d="M24.1721 26.1909C24.2033 26.2477 24.2341 26.3045 24.2661 26.3609C24.2697 26.3041 24.2725 26.2473 24.2769 26.1909H24.1721Z" fill="#D1FF00"/>
<path d="M23.7201 25.2941C23.7397 25.2697 23.7605 25.2461 23.7825 25.2241C23.9309 25.0757 24.1361 24.9841 24.4077 24.9645C24.4557 24.6249 24.5145 24.2881 24.5817 23.9541C24.5573 23.9537 24.5341 23.9509 24.5093 23.9509C24.2549 23.9509 24.0217 23.9825 23.8073 24.0373C23.6773 24.2153 23.5433 24.3909 23.4053 24.5641C23.5037 24.8105 23.6085 25.0541 23.7197 25.2945L23.7201 25.2941Z" fill="#D1FF00"/>
<path d="M25.7036 24.2024C25.612 24.6008 25.5456 25.0092 25.5016 25.4252C25.6464 25.6256 25.7392 25.8844 25.778 26.1908H25.4484C25.4444 26.3124 25.4404 26.434 25.4404 26.5564C25.4404 26.7228 25.4456 26.8884 25.4536 27.0536C25.4888 27.0668 25.5236 27.0812 25.5588 27.0944H25.7588C25.7544 27.1188 25.7492 27.1424 25.744 27.1664C25.8032 27.19 25.8632 27.2116 25.922 27.236C26.3008 26.7528 26.6456 26.2468 26.9528 25.72C26.7632 25.0432 26.3368 24.5004 25.7036 24.2024Z" fill="#D1FF00"/>
<path d="M23.5666 25.5657H22.5374C22.5314 25.5721 22.5254 25.5789 22.519 25.5853C22.695 25.7965 22.8818 25.9985 23.079 26.1905H24.1718C24.0114 25.8969 23.8606 25.5981 23.7198 25.2937C23.6566 25.3725 23.6058 25.4637 23.5666 25.5657Z" fill="#D1FF00"/>
<path d="M25.1416 21.8607C24.9128 22.5419 24.7256 23.2411 24.582 23.9543C25.0072 23.9635 25.382 24.0515 25.704 24.2027C26.0052 22.8899 26.5628 21.6851 27.3472 20.6531C27.044 20.1479 26.676 19.6867 26.2552 19.2795C26.186 19.4091 26.1184 19.5395 26.0524 19.6711C25.8036 20.4239 25.4996 21.1551 25.1424 21.8607H25.1416Z" fill="#D1FF00"/>
<path d="M24.5188 24.9601C24.4804 24.9601 24.4436 24.9617 24.408 24.9641C24.3504 25.3693 24.3069 25.7781 24.2769 26.1905H25.4488C25.4576 25.9325 25.4753 25.6773 25.5017 25.4249C25.2877 25.1285 24.9601 24.9597 24.5185 24.9597L24.5188 24.9601Z" fill="#D1FF00"/>
<path d="M24.2482 26.6754C23.9646 26.6002 23.6778 26.533 23.3882 26.4766C23.6418 26.699 23.9118 26.9038 24.1942 27.0946H24.2338C24.237 26.9546 24.2418 26.8146 24.2482 26.6754Z" fill="#D1FF00"/>
<path d="M24.7083 27.0945H25.4563C25.4555 27.0809 25.4543 27.0673 25.4539 27.0537C25.1363 26.9365 24.8135 26.8317 24.4863 26.7385C24.5587 26.8581 24.6331 26.9769 24.7087 27.0945H24.7083Z" fill="#D1FF00"/>
<path d="M24.2336 27.0945C24.2336 27.1033 24.2336 27.1121 24.2336 27.1209C24.4952 27.2953 24.7672 27.4573 25.0512 27.6033C24.9336 27.4361 24.8192 27.2665 24.7088 27.0945H24.2341H24.2336Z" fill="#D1FF00"/>
<path d="M25.5588 27.0945H25.4561C25.4673 27.3101 25.4849 27.5241 25.5093 27.7369C25.5113 27.7345 25.5136 27.7321 25.5156 27.7297C25.6236 27.5765 25.6977 27.3861 25.7441 27.1665C25.6825 27.1421 25.6208 27.1181 25.5588 27.0945Z" fill="#D1FF00"/>
<path d="M22.5193 25.5859C22.5141 25.5795 22.5089 25.5727 22.5037 25.5663H22.2789C22.2937 25.4951 22.3137 25.4251 22.3365 25.3563C22.0797 25.0243 21.8481 24.6715 21.6449 24.2991C21.6289 24.3087 21.6129 24.3187 21.5969 24.3283V26.2539C21.6765 26.2583 21.7561 26.2619 21.8353 26.2679C21.9585 26.1523 22.0805 26.0355 22.2001 25.9155C22.3085 25.8071 22.4145 25.6971 22.5193 25.5859Z" fill="#D1FF00"/>
<path d="M20.8222 26.2285H20.771V27.1821C21.053 26.9605 21.3282 26.7293 21.5966 26.4877V26.2533C21.3398 26.2385 21.0818 26.2285 20.8222 26.2285Z" fill="#D1FF00"/>
<path d="M25.5589 16.3655V17.0283C25.5589 17.1211 25.5529 17.2127 25.5493 17.3047C25.9085 17.3423 26.2609 17.4003 26.6077 17.4759C26.6741 17.1063 26.7277 16.7331 26.7689 16.3567C26.6501 16.3599 26.5321 16.3655 26.4129 16.3655H25.5593H25.5589Z" fill="#D1FF00"/>
<path d="M22.3359 25.3557C22.3907 25.4265 22.4463 25.4969 22.5035 25.5657H22.5375C22.8419 25.2425 23.1311 24.9077 23.4055 24.5633C23.3627 24.4561 23.3211 24.3481 23.2803 24.2397C23.1003 24.3369 22.9407 24.4546 22.8059 24.5894C22.5863 24.809 22.4291 25.0721 22.3359 25.3553V25.3557Z" fill="#D1FF00"/>
<path d="M22.9525 23.2631C23.0509 23.5935 23.1605 23.9195 23.2801 24.2403C23.4389 24.1547 23.6145 24.0863 23.8069 24.0371C24.3113 23.3459 24.7569 22.6187 25.1409 21.8603C25.3937 21.1075 25.6977 20.3759 26.0509 19.6707C26.1001 19.5215 26.1473 19.3715 26.1925 19.2207C25.9385 18.9811 25.6669 18.7607 25.3777 18.5627C25.2153 19.2543 24.9493 19.9063 24.5909 20.4967C24.2801 21.5291 23.7209 22.4803 22.9517 23.2623L22.9525 23.2631Z" fill="#D1FF00"/>
<path d="M21.5386 24.095H20.771V24.7434C21.055 24.6242 21.331 24.4854 21.5962 24.3278V24.2098C21.5762 24.1722 21.5578 24.1334 21.5382 24.0954L21.5386 24.095Z" fill="#D1FF00"/>
<path d="M22.0676 17.4117C22.1148 17.4149 22.162 17.4181 22.2092 17.4225C22.206 17.2973 22.2032 17.1721 22.2032 17.0469C22.2032 16.8053 22.2092 16.5645 22.2208 16.3245C22.1732 16.3841 22.1252 16.4437 22.0784 16.5041V17.0277C22.0784 17.1565 22.0748 17.2849 22.0676 17.4117Z" fill="#D1FF00"/>
<path d="M22.4085 16.0937C22.3517 16.0821 22.2961 16.0673 22.2397 16.0549C22.2337 16.1449 22.2253 16.2345 22.2209 16.3245C22.2825 16.2469 22.3453 16.1701 22.4085 16.0937Z" fill="#D1FF00"/>
<path d="M22.5176 17.4581C23.5684 17.6025 24.5416 17.9897 25.3784 18.5629C25.474 18.1561 25.5316 17.7357 25.5492 17.3041C25.2076 17.2685 24.8608 17.2493 24.51 17.2493C23.8284 17.2493 23.162 17.3217 22.518 17.4581H22.5176Z" fill="#D1FF00"/>
<path d="M22.5176 17.4582C22.4156 17.4442 22.3128 17.4322 22.2092 17.4226C22.21 17.4574 22.21 17.4922 22.2112 17.5266C22.3124 17.5014 22.4152 17.4798 22.5176 17.4578V17.4582Z" fill="#D1FF00"/>
<path d="M22.0783 18.9701C22.0783 20.2929 21.6867 21.5749 20.9683 22.6629C21.1159 23.1653 21.3075 23.6433 21.5383 24.0953H21.5962V24.2097C21.6122 24.2397 21.6283 24.2693 21.6443 24.2989C22.1019 24.0221 22.5283 23.6897 22.9127 23.3057C22.9263 23.2917 22.9387 23.2773 22.9519 23.2633C22.6711 22.3197 22.4787 21.3401 22.3811 20.3337C22.3351 19.8613 22.3147 19.3889 22.3187 18.9189C22.2615 18.4581 22.2255 17.9937 22.2107 17.5273C22.1639 17.5389 22.1179 17.5525 22.0715 17.5645C22.0743 17.6421 22.0783 17.7193 22.0779 17.7973V18.9705L22.0783 18.9701Z" fill="#D1FF00"/>
<path d="M19.8818 18.4621C20.0986 18.3373 20.3202 18.2209 20.547 18.1145C20.503 17.8769 20.4726 17.6365 20.4546 17.3933H20.2886C20.1018 17.3933 19.9162 17.4029 19.7314 17.4181C19.6918 17.5453 19.6498 17.6717 19.605 17.7969C19.703 18.0157 19.7954 18.2373 19.8818 18.4621Z" fill="#D1FF00"/>
<path d="M20.6071 20.0909V18.7981C20.4795 19.0417 20.3579 19.2889 20.2427 19.5393C20.5571 20.6281 20.7367 21.7737 20.7631 22.9573C20.8343 22.8609 20.9023 22.7625 20.9683 22.6629C20.7327 21.8605 20.6067 20.9989 20.6067 20.0913L20.6071 20.0909Z" fill="#D1FF00"/>
<path d="M20.434 16.8985C20.434 17.0645 20.4424 17.2293 20.4544 17.3937H21.4404C21.6424 17.0901 21.8548 16.7933 22.078 16.5045V16.0181C21.5592 15.8981 21.0508 15.7509 20.5568 15.5725C20.4768 15.9865 20.4336 16.4133 20.4336 16.8505V16.8985H20.434Z" fill="#D1FF00"/>
<path d="M22.0721 17.5642C22.0705 17.5138 22.0705 17.4626 22.0677 17.4126C22.0677 17.4126 22.0677 17.4126 22.0677 17.4122C21.9117 17.4014 21.7553 17.3938 21.5965 17.3938H21.4409C21.3373 17.549 21.2369 17.7062 21.1389 17.865C21.4429 17.7486 21.7541 17.6482 22.0717 17.5642H22.0721Z" fill="#D1FF00"/>
<path d="M20.6074 18.7981C20.7738 18.4809 20.9514 18.1697 21.1394 17.8645C20.939 17.9413 20.741 18.0237 20.5474 18.1145C20.5658 18.2141 20.5846 18.3133 20.6074 18.4117V18.7981Z" fill="#D1FF00"/>
<path d="M18.734 16.1626H18.8572V16.3598C19.0696 16.7126 19.2672 17.0754 19.4472 17.4486C19.5416 17.4366 19.6364 17.4266 19.7316 17.4186C19.934 16.7714 20.0672 16.0974 20.1272 15.4062C19.4476 15.1342 18.794 14.811 18.1748 14.4358V15.3374C18.3712 15.605 18.5572 15.8802 18.734 16.1626Z" fill="#D1FF00"/>
<path d="M11.7025 -0.582483V-1.09448C10.8525 -0.942882 10.0305 -0.711684 9.24365 -0.408083C9.49285 -0.238484 9.73165 -0.052084 9.95725 0.151516C10.5168 -0.132484 11.0997 -0.377683 11.7021 -0.582483H11.7025Z" fill="#D1FF00"/>
<path d="M17.9248 15.0106C18.0024 14.8154 18.076 14.6178 18.1444 14.4178C17.7108 14.1538 17.2952 13.863 16.896 13.553V13.839C17.2616 14.2086 17.604 14.6006 17.9248 15.0106Z" fill="#D1FF00"/>
<path d="M16.06 13.0648C16.1104 13.0628 16.2024 13.0596 16.2956 13.058C16.236 13.006 16.1748 12.9556 16.1164 12.9028C16.0848 12.9224 16.0528 12.9416 16.0212 12.9616V13.0312C16.0344 13.0424 16.0472 13.0536 16.06 13.0648Z" fill="#D1FF00"/>
<path d="M12.1717 10.0606C12.1717 10.289 12.1601 10.5146 12.1377 10.7374C12.9985 11.0654 13.8157 11.4798 14.5805 11.9694C14.6109 11.955 14.6425 11.9426 14.6733 11.9282C14.7221 11.8046 14.7725 11.6814 14.8249 11.5594C13.6269 10.1282 12.7241 8.44259 12.2053 6.59619C12.1941 6.60379 12.1829 6.61179 12.1717 6.61979V10.0606Z" fill="#D1FF00"/>
<path d="M14.7776 12.0953H15.2996C15.2024 11.9909 15.1072 11.8845 15.0132 11.7769C14.8992 11.8257 14.7856 11.8757 14.6728 11.9277C14.6624 11.9545 14.652 11.9813 14.6416 12.0081C14.6868 12.0373 14.7324 12.0653 14.7772 12.0949L14.7776 12.0953Z" fill="#D1FF00"/>
<path d="M15.9748 12.9913C15.9904 12.9817 16.0056 12.9713 16.0208 12.9617V12.8141C15.7988 12.6093 15.5848 12.3957 15.3772 12.1765V12.5157C15.5816 12.6681 15.78 12.8277 15.9748 12.9913Z" fill="#D1FF00"/>
<path d="M5.57908 1.72564C6.66988 0.83164 7.90548 0.108441 9.24348 -0.408359C8.79028 -0.717559 8.30187 -0.968759 7.78947 -1.15796C6.25867 -0.863559 4.79187 -0.35076 3.42627 0.36404C4.17667 0.75764 4.89627 1.21204 5.57867 1.72564H5.57908Z" fill="#D1FF00"/>
<path d="M7.44772 3.37497C8.06492 4.01177 8.61931 4.69577 9.11571 5.41457C9.69251 5.30657 10.2849 5.25017 10.8873 5.25017C11.2325 5.25017 11.5737 5.26977 11.9105 5.30497C11.7761 4.54377 11.7021 3.76217 11.7021 2.96257V2.66977C11.3681 1.82337 10.8641 1.04497 10.2081 0.389368C10.1265 0.307768 10.0425 0.228567 9.95692 0.151367C8.71412 0.782567 7.58531 1.60057 6.60571 2.56777C6.89451 2.82537 7.17532 3.09417 7.44692 3.37457L7.44772 3.37497Z" fill="#D1FF00"/>
<path d="M10.6228 8.13561C10.8236 7.86281 11.044 7.60481 11.2832 7.36561C11.5564 7.09241 11.854 6.84241 12.1716 6.61921V6.47761C12.1044 6.23001 12.0428 5.98001 11.9896 5.72681C11.2624 5.96441 10.5788 6.32521 9.96924 6.79721C10.208 7.23281 10.426 7.67921 10.6228 8.13521V8.13561Z" fill="#D1FF00"/>
<path d="M4.15039 8.10849C4.20479 8.05129 4.25759 7.99288 4.31359 7.93688C4.67399 7.57648 5.06159 7.25208 5.47039 6.96048V5.12769H4.57719C4.43119 5.36689 4.29399 5.61208 4.16279 5.86088V7.92568C4.16279 7.98888 4.15759 8.04929 4.15039 8.10849Z" fill="#D1FF00"/>
<path d="M1.29346 -0.559326C1.45866 0.0974738 1.57986 0.766673 1.65266 1.44747C2.22106 1.04627 2.81345 0.685072 3.42625 0.364272C2.73945 0.00427246 2.02706 -0.304126 1.29346 -0.559326Z" fill="#D1FF00"/>
<path d="M2.41232 5.48487C2.41792 5.64407 2.42271 5.80368 2.42271 5.96448V6.82967C2.42271 7.15287 2.40952 7.47448 2.38672 7.79448C2.47072 7.87488 2.55472 7.95528 2.63592 8.03888C2.79752 8.20568 2.94992 8.37967 3.09752 8.55687C3.35632 7.61367 3.71472 6.71087 4.16271 5.86127V5.12808H4.57711C5.13311 4.21768 5.79431 3.37767 6.54551 2.62647C6.56551 2.60647 6.58672 2.58768 6.60672 2.56808C6.27472 2.27168 5.93191 1.99127 5.57951 1.72607C5.23631 2.00767 4.90632 2.30488 4.59272 2.61848C3.74311 3.46808 3.01031 4.43327 2.41271 5.48487H2.41232Z" fill="#D1FF00"/>
<path d="M6.73997 9.86055H7.36837C7.49597 9.86055 7.62237 9.86655 7.74917 9.87015C8.07917 8.93335 8.61517 8.07255 9.33077 7.35695C9.53197 7.15575 9.74596 6.97015 9.96876 6.79775C9.70876 6.32335 9.42396 5.86175 9.11556 5.41455C7.79236 5.66215 6.55357 6.18775 5.46997 6.96095V9.74175C5.89717 9.76495 6.32117 9.80335 6.73997 9.86055Z" fill="#D1FF00"/>
<path d="M4.19117 9.72641V9.38721H4.16238C4.08598 9.50721 4.00277 9.61201 3.91357 9.70601C3.91877 9.71481 3.92478 9.72361 3.92998 9.73281C4.01678 9.72921 4.10437 9.72881 4.19117 9.72641Z" fill="#D1FF00"/>
<path d="M3.84094 8.78584C4.00654 8.62024 4.11653 8.38704 4.15053 8.10864C3.88973 8.38304 3.64574 8.66984 3.42334 8.97064C3.43374 8.98504 3.44493 8.99864 3.45533 9.01304C3.60173 8.96784 3.73413 8.89304 3.84133 8.78584H3.84094Z" fill="#D1FF00"/>
<path d="M11.4272 10.4877C11.22 9.68134 10.9508 8.89574 10.6228 8.13574C10.198 8.71294 9.86398 9.36014 9.64038 10.0561C10.2508 10.1605 10.8476 10.3037 11.4272 10.4877Z" fill="#D1FF00"/>
<path d="M2.97412 9.0442C2.62172 8.981 2.39931 8.7362 2.33051 8.3938C2.26971 8.9126 2.17811 9.4254 2.05811 9.9302C2.30931 9.8886 2.56171 9.853 2.81611 9.8238C2.86131 9.5614 2.91412 9.3014 2.97412 9.0442Z" fill="#D1FF00"/>
<path d="M3.88913 9.73423C3.89753 9.72583 3.90513 9.71543 3.91353 9.70663C3.77113 9.46943 3.61872 9.23783 3.45472 9.01343C3.42872 9.02143 3.40313 9.03103 3.37593 9.03703C3.19273 9.28903 3.02352 9.54983 2.86792 9.81783C3.20592 9.77983 3.54592 9.75023 3.88872 9.73423H3.88913Z" fill="#D1FF00"/>
<path d="M3.16252 9.06048C3.23692 9.06048 3.30771 9.05128 3.37611 9.03648C3.39211 9.01488 3.40691 8.99248 3.42291 8.97088C3.31851 8.83008 3.2097 8.69208 3.0973 8.55688C3.0529 8.71808 3.01212 8.88089 2.97412 9.04449C3.03332 9.05529 3.09612 9.06088 3.16252 9.06088V9.06048Z" fill="#D1FF00"/>
<path d="M6.66007 30.1378H7.15687C6.88807 30.075 6.62167 30.005 6.35767 29.929C6.45767 29.9994 6.55766 30.0702 6.65966 30.1378H6.66007Z" fill="#D1FF00"/>
<path d="M6.06079 29.7173V29.8401C6.15959 29.8709 6.25878 29.9001 6.35798 29.9285C6.25878 29.8585 6.15799 29.7897 6.06079 29.7173Z" fill="#D1FF00"/>
<path d="M5.38607 28.177V27.9018C5.38607 27.7754 5.38888 27.6498 5.39248 27.5242C5.05928 27.767 4.71728 27.9962 4.36768 28.2114C4.40208 28.2478 4.43607 28.2842 4.47127 28.3198C4.53247 28.3254 4.59407 28.3298 4.65687 28.3298C4.94367 28.3298 5.18327 28.2722 5.38607 28.1766V28.177Z" fill="#D1FF00"/>
<path d="M7.27396 25.9152C6.96596 26.2232 6.64676 26.516 6.31836 26.7952C6.64476 27.2144 6.99516 27.614 7.36836 27.9912V25.8188C7.33676 25.8508 7.30596 25.8836 7.27436 25.9152H7.27396Z" fill="#D1FF00"/>
<path d="M2.53467 25.7937C2.55787 27.1189 3.24307 28.0805 4.24467 28.2873C4.28587 28.2625 4.32667 28.2369 4.36787 28.2117C3.66987 27.4793 3.05387 26.6693 2.53467 25.7937Z" fill="#D1FF00"/>
<path d="M5.69753 26.9946C5.61553 27.0766 5.51833 27.1414 5.40673 27.1882C5.40073 27.2998 5.39553 27.4118 5.39233 27.5242C5.70873 27.2934 6.01753 27.0502 6.31833 26.795C6.21393 26.661 6.11192 26.525 6.01272 26.387C5.95032 26.6346 5.84912 26.843 5.69792 26.9946H5.69753Z" fill="#D1FF00"/>
<path d="M6.10889 23.5519C6.12089 23.5167 6.13328 23.4815 6.14568 23.4463C6.13368 23.4471 6.12129 23.4463 6.10889 23.4471V23.5519Z" fill="#D1FF00"/>
<path d="M5.78798 24.6385C5.85958 24.3533 5.93999 24.0717 6.02919 23.7937C5.93799 23.6661 5.83118 23.5525 5.70638 23.4573C5.62758 23.4585 5.54958 23.4633 5.47038 23.4633H4.74759C4.60559 23.4821 4.46238 23.4981 4.31958 23.5129C4.45438 23.7561 4.59558 23.9953 4.74478 24.2293C4.79718 24.2213 4.85079 24.2153 4.90759 24.2153C5.28279 24.2153 5.58399 24.3681 5.78839 24.6385H5.78798Z" fill="#D1FF00"/>
<path d="M3.34399 23.5829C3.67119 23.5693 3.99639 23.5465 4.31919 23.5125C4.25759 23.4013 4.19799 23.2885 4.13919 23.1753C3.83879 23.2461 3.57079 23.3841 3.34399 23.5829Z" fill="#D1FF00"/>
<path d="M6.21257 23.2634C6.19017 23.3242 6.16695 23.385 6.14575 23.4462C6.55895 23.4258 6.96616 23.3842 7.36856 23.327V23.2634H6.21296H6.21257Z" fill="#D1FF00"/>
<path d="M19.428 31.9085C19.5092 31.9745 19.592 32.0401 19.6768 32.1061C19.652 32.0345 19.6304 31.9617 19.6064 31.8901C19.5472 31.8965 19.4876 31.9029 19.4284 31.9085H19.428Z" fill="#D1FF00"/>
<path d="M18.688 31.9561C18.9356 31.9465 19.1824 31.9317 19.4276 31.9085C19.3792 31.8693 19.3304 31.8297 19.2832 31.7905C19.0864 31.8505 18.8876 31.9053 18.688 31.9561Z" fill="#D1FF00"/>
<path d="M19.5454 31.7039C19.5654 31.7659 19.5854 31.8283 19.6062 31.8899C19.965 31.8515 20.321 31.7983 20.6738 31.7311C20.6926 31.5739 20.7082 31.4159 20.7214 31.2571C20.337 31.4243 19.9446 31.5731 19.5458 31.7039H19.5454Z" fill="#D1FF00"/>
<path d="M18.1743 31.9689H17.1851C17.2435 32.0549 17.3031 32.1401 17.3643 32.2245C17.8107 32.1577 18.2523 32.0673 18.6879 31.9565C18.5171 31.9629 18.3459 31.9693 18.1743 31.9693V31.9689Z" fill="#D1FF00"/>
<path d="M17.1851 31.9689C16.7175 31.2801 16.3439 30.5273 16.0683 29.7229C15.4159 29.9429 14.7475 30.1213 14.0663 30.2561C14.0583 30.7285 14.0011 31.1885 13.8999 31.6321C14.8631 31.8521 15.8655 31.9689 16.8951 31.9689H17.1847H17.1851Z" fill="#D1FF00"/>
<path d="M18.8508 28.4743C18.8736 28.6763 18.9008 28.8771 18.9308 29.0775C18.9772 29.0823 19.0304 29.0847 19.0964 29.0847C19.4584 29.0847 19.726 28.9711 19.9488 28.7483C20.0808 28.6163 20.1972 28.4459 20.308 28.2387H20.3368V29.0271H20.7712V27.1819C20.1608 27.6611 19.5192 28.0927 18.8512 28.4743H18.8508Z" fill="#D1FF00"/>
<path d="M18.7887 29.0465V28.5105C18.2035 28.8409 17.5983 29.1333 16.9763 29.3861C17.4843 30.0509 18.0507 30.6769 18.6747 31.2565C18.8639 31.4321 19.0667 31.6109 19.2831 31.7909C19.3711 31.7641 19.4575 31.7329 19.5451 31.7041C19.2711 30.8517 19.0655 29.9737 18.9307 29.0777C18.8759 29.0717 18.8303 29.0621 18.7887 29.0465Z" fill="#D1FF00"/>
<path d="M14.0696 25.6714V27.4142C14.5136 27.2142 14.9692 27.037 15.4356 26.8858C15.2432 26.4898 15.0692 26.0846 14.912 25.6714H14.0696Z" fill="#D1FF00"/>
<path d="M15.5336 27.083C15.6036 28.0082 15.7844 28.8926 16.0684 29.723C16.3748 29.6198 16.6776 29.5078 16.976 29.3862C16.4236 28.663 15.9416 27.8926 15.5332 27.083H15.5336Z" fill="#D1FF00"/>
<path d="M20.2888 24.9234V26.2286H20.7712V24.7434C20.6128 24.8098 20.452 24.869 20.2888 24.9234Z" fill="#D1FF00"/>
<path d="M18.1741 25.2675H17.6665C16.9841 25.5155 16.2601 25.6519 15.5217 25.6679C15.5085 25.8407 15.5005 26.0147 15.5005 26.1907C15.5005 26.4151 15.5089 26.6367 15.5209 26.8571C16.5529 26.5295 17.6329 26.3255 18.7425 26.2571C18.7481 25.9151 18.7637 25.5755 18.7885 25.2383C18.5849 25.2571 18.3797 25.2675 18.1737 25.2675H18.1741Z" fill="#D1FF00"/>
<path d="M18.794 27.9021H18.7888V28.5101C18.8096 28.4985 18.83 28.4861 18.8508 28.4741C18.8292 28.2841 18.8092 28.0933 18.794 27.9021Z" fill="#D1FF00"/>
<path d="M15.4355 26.8858C15.4675 26.9518 15.5008 27.0174 15.534 27.083C15.5284 27.0082 15.5256 26.9326 15.5212 26.8574C15.4924 26.8666 15.4643 26.8766 15.4355 26.8862V26.8858Z" fill="#D1FF00"/>
<path d="M19.9185 27.5805C20.1525 27.3465 20.2888 26.9877 20.2888 26.4985V26.2285H19.5725C19.2941 26.2285 19.0181 26.2401 18.7429 26.2569C18.7413 26.3565 18.7393 26.4561 18.7393 26.5561C18.7393 27.0073 18.7589 27.4561 18.7941 27.9021H18.8177C19.2701 27.9477 19.6556 27.8429 19.918 27.5805H19.9185Z" fill="#D1FF00"/>
<path d="M20.7713 24.0949V23.2633C20.7713 23.1605 20.7657 23.0593 20.7637 22.9573C20.5677 23.2217 20.3517 23.4733 20.1161 23.7085C19.7289 24.0957 19.2989 24.4305 18.8373 24.7085C18.8189 24.8845 18.8025 25.0609 18.7893 25.2381C19.3025 25.1909 19.8053 25.0841 20.2893 24.9229V24.0945H20.7717L20.7713 24.0949Z" fill="#D1FF00"/>
<path d="M14.6328 24.8704C14.7184 25.1404 14.8116 25.4072 14.9116 25.6712H15.3768C15.4252 25.6712 15.4732 25.6688 15.5212 25.6676C15.5352 25.4876 15.5564 25.3096 15.5844 25.134C15.258 25.0692 14.9404 24.9808 14.6328 24.8704Z" fill="#D1FF00"/>
<path d="M14.0696 23.3202V24.6398C14.2528 24.7254 14.4408 24.8018 14.6328 24.871C14.4668 24.3462 14.3276 23.8106 14.2176 23.2642C14.168 23.2826 14.1192 23.303 14.0696 23.3206V23.3202Z" fill="#D1FF00"/>
<path d="M20.2428 19.5394C20.1372 19.1738 20.0172 18.8146 19.882 18.4626C19.6072 18.621 19.3404 18.793 19.084 18.9806C18.6596 19.783 18.1156 20.5226 17.4616 21.177C17.1556 21.483 16.83 21.7634 16.4888 22.0198C16.1384 22.7034 15.878 23.4342 15.7188 24.1974C15.6596 24.4806 15.6192 24.7654 15.5976 25.0502C15.5928 25.0782 15.5896 25.1062 15.5852 25.1342C16.0096 25.2186 16.4468 25.2674 16.896 25.2674H17.6672C18.074 25.1194 18.466 24.9326 18.8376 24.7086C19.0296 22.8866 19.5052 21.1446 20.2436 19.539L20.2428 19.5394Z" fill="#D1FF00"/>
<path d="M16.896 18.3174C17.3012 18.0794 17.73 17.8862 18.1748 17.7382V17.0282H18.8572V16.3602C18.8172 16.2938 18.7748 16.2286 18.734 16.163H18.1748V15.3378C18.0936 15.2274 18.0096 15.119 17.9248 15.011C17.6392 15.729 17.2956 16.417 16.896 17.0678V18.3178V18.3174Z" fill="#D1FF00"/>
<path d="M13.9104 20.4692C13.7996 20.5592 13.6876 20.6472 13.574 20.7336C13.7328 21.1228 13.8568 21.53 13.9404 21.9516C13.958 21.8996 13.9764 21.8484 13.9952 21.7968C13.9492 21.3592 13.9204 20.9164 13.9104 20.4692Z" fill="#D1FF00"/>
<path d="M19.0842 18.9806C19.2858 18.5998 19.459 18.2042 19.6054 17.7974C19.5534 17.681 19.503 17.5634 19.4474 17.449C19.013 17.5038 18.587 17.601 18.1746 17.7382V18.5666H16.8958V18.3178C16.409 18.6034 15.9558 18.951 15.5502 19.357C14.8534 20.0538 14.327 20.8894 13.9954 21.7978C14.0474 22.2934 14.121 22.783 14.2178 23.2646C15.0294 22.9598 15.793 22.543 16.4886 22.0202C16.8962 21.2246 17.4262 20.4934 18.0674 19.8522C18.3854 19.5342 18.725 19.2438 19.0838 18.9814L19.0842 18.9806Z" fill="#D1FF00"/>
<path d="M11.9061 13.5348C11.9201 13.5592 11.9333 13.584 11.9461 13.6096C12.2613 13.3588 12.5861 13.1216 12.9209 12.9012C12.6489 12.5512 12.2829 12.2816 11.8477 12.1204C11.8281 12.1816 11.8072 12.2428 11.7856 12.3032C11.8416 12.71 11.8805 13.1208 11.9061 13.5344V13.5348Z" fill="#D1FF00"/>
<path d="M12.7229 16.4381C13.0929 16.0681 13.3381 15.5765 13.4261 15.0181C13.3937 15.0497 13.3613 15.0805 13.3293 15.1125L13.3285 15.1133C12.7585 15.6833 12.2393 16.2945 11.7705 16.9389C11.7665 16.9677 11.7613 16.9965 11.7573 17.0253C12.1321 16.9021 12.4597 16.7017 12.7237 16.4381H12.7229Z" fill="#D1FF00"/>
<path d="M14.0696 12.0952V12.2244C14.1548 12.18 14.2408 12.138 14.3268 12.0952H14.0696Z" fill="#D1FF00"/>
<path d="M14.0696 14.4203C14.4888 14.0527 14.9248 13.7087 15.3772 13.3907V12.5163C15.1816 12.3703 14.9812 12.2311 14.7776 12.0959H14.6084C14.3876 12.6771 14.2076 13.2739 14.0696 13.8823V14.4207V14.4203Z" fill="#D1FF00"/>
<path d="M11.9411 14.5568C11.9411 14.8988 11.9295 15.2384 11.9087 15.5764C12.0583 15.3072 12.1371 14.9596 12.1371 14.5568C12.1371 14.188 12.0715 13.8664 11.9459 13.6096C11.9351 13.6184 11.9239 13.6264 11.9131 13.6352C11.9299 13.9412 11.9411 14.248 11.9411 14.5568Z" fill="#D1FF00"/>
<path d="M14.6083 12.0954C14.6195 12.0662 14.6307 12.0374 14.6419 12.0086C14.6215 11.9954 14.6007 11.9822 14.5803 11.969C14.4947 12.0094 14.4111 12.0534 14.3267 12.0954H14.6087H14.6083Z" fill="#D1FF00"/>
<path d="M13.4256 15.0182C13.5932 14.8534 13.764 14.6926 13.938 14.5362C13.9764 14.3166 14.0204 14.0986 14.0696 13.8818V12.2246C13.6764 12.4306 13.2928 12.6562 12.9204 12.901C13.2672 13.347 13.464 13.9198 13.464 14.5566C13.464 14.715 13.4492 14.8682 13.4256 15.0178V15.0182Z" fill="#D1FF00"/>
<path d="M13.7329 16.9051C13.7329 17.6279 13.7921 18.3439 13.9061 19.0463V20.0907C13.9061 20.2175 13.9077 20.3439 13.9109 20.4699C14.2721 20.1767 14.6189 19.8667 14.9477 19.5379C15.6897 18.7959 16.3441 17.9663 16.8965 17.0675V17.0279H16.0505V16.1627H16.8965V13.8391C16.6293 13.5691 16.3497 13.3119 16.0605 13.0651C16.0361 13.0659 16.0217 13.0667 16.0217 13.0667V13.0315C16.0061 13.0183 15.9913 13.0047 15.9757 12.9915C15.7737 13.1199 15.5741 13.2527 15.3781 13.3907V17.0279H14.0705V14.4203C14.0265 14.4587 13.9825 14.4975 13.9389 14.5363C13.8053 15.2979 13.7333 16.0735 13.7337 16.8571V16.9051H13.7329ZM15.3773 17.7971V18.9699H14.0697V17.7971H15.3773Z" fill="#D1FF00"/>
<path d="M11.7536 12.0875C11.7852 12.0979 11.8163 12.1091 11.8471 12.1207C11.9903 11.6779 12.0895 11.2151 12.1371 10.7375C11.9031 10.6483 11.6668 10.5643 11.4268 10.4883C11.5616 11.0135 11.6716 11.5471 11.7532 12.0879L11.7536 12.0875Z" fill="#D1FF00"/>
<path d="M5.46997 10.0606V9.74175C5.18757 9.72655 4.90397 9.71655 4.61837 9.71655C4.47557 9.71655 4.33356 9.72295 4.19116 9.72695V10.061H5.46997V10.0606Z" fill="#D1FF00"/>
<path d="M9.19828 16.5721C9.24748 16.4993 9.29748 16.4269 9.34828 16.3549V16.1625C9.34828 15.9401 9.36109 15.7189 9.38309 15.4993C9.15749 15.6621 8.92187 15.8121 8.67627 15.9465C8.81547 16.1841 8.98988 16.3961 9.19828 16.5725V16.5721Z" fill="#D1FF00"/>
<path d="M10.8876 17.1624C11.174 17.1624 11.4432 17.122 11.692 17.0476C11.718 17.0112 11.7436 16.9748 11.77 16.9388C11.8352 16.4892 11.8812 16.0344 11.9092 15.5764C11.8516 15.6804 11.7844 15.7736 11.7052 15.8524C11.5008 16.0568 11.2264 16.172 10.8876 16.172C10.446 16.172 10.1112 15.9712 9.89919 15.6296C9.70679 15.8656 9.52359 16.1076 9.34839 16.3552V16.6868C9.76559 16.9868 10.2888 17.1624 10.8876 17.1624Z" fill="#D1FF00"/>
<path d="M7.09717 16.5617H7.36797V16.4873C7.27837 16.5137 7.18837 16.5389 7.09717 16.5617Z" fill="#D1FF00"/>
<path d="M9.19831 16.5723C9.15191 16.6407 9.1055 16.7087 9.0603 16.7779C9.1571 16.8031 9.2531 16.8303 9.3479 16.8595V16.6867C9.2967 16.6499 9.2459 16.6127 9.1979 16.5723H9.19831Z" fill="#D1FF00"/>
<path d="M10.8115 14.6177C11.1615 14.2677 11.5303 13.9417 11.9127 13.6353C11.9107 13.6017 11.9074 13.5685 11.9054 13.5349C11.793 13.3361 11.6407 13.1821 11.4503 13.0825C11.1279 13.7197 10.7079 14.2993 10.2083 14.7993C10.0551 14.9525 9.89425 15.0981 9.72705 15.2361C9.76945 15.3821 9.82705 15.5141 9.89865 15.6297C10.1847 15.2789 10.4883 14.9405 10.8111 14.6177H10.8115Z" fill="#D1FF00"/>
<path d="M11.6922 17.0476C11.523 17.284 11.3598 17.5244 11.2046 17.77C11.3294 17.8572 11.4514 17.9484 11.5694 18.044C11.6422 17.7076 11.7046 17.368 11.7562 17.0256C11.7346 17.0328 11.7138 17.0416 11.6918 17.048L11.6922 17.0476Z" fill="#D1FF00"/>
<path d="M9.51558 14.6738C9.45398 14.9446 9.41079 15.2206 9.38319 15.499C9.50039 15.4146 9.61598 15.3274 9.72718 15.2358C9.66838 15.0338 9.63718 14.8058 9.63718 14.5566C9.63718 14.0018 9.78759 13.5526 10.0684 13.2718C10.274 13.0662 10.5496 12.951 10.8872 12.951C11.1016 12.951 11.2892 12.9974 11.4508 13.0822C11.578 12.831 11.69 12.5714 11.7856 12.3034C11.7756 12.2314 11.7648 12.1594 11.7536 12.0874C11.4876 12.0006 11.198 11.9514 10.8876 11.9514C10.2748 11.9514 9.74158 12.1358 9.31958 12.449V13.0666C9.31958 13.613 9.38678 14.1522 9.51558 14.6738Z" fill="#D1FF00"/>
<path d="M7.36833 16.4873C7.82633 16.3521 8.26472 16.1709 8.67632 15.9461C8.44232 15.5469 8.31073 15.0733 8.31073 14.5569C8.31073 13.8073 8.58312 13.1453 9.05192 12.6757C9.13432 12.5929 9.22512 12.5189 9.31952 12.4489V12.1053C9.31952 11.3917 9.43272 10.7033 9.64032 10.0561C9.02312 9.95052 8.39193 9.88812 7.74913 9.87012C7.49953 10.5785 7.36792 11.3301 7.36792 12.0957V16.4873H7.36833Z" fill="#D1FF00"/>
<path d="M2.81601 9.82378C2.80881 9.86618 2.80001 9.90858 2.79321 9.95098C2.81801 9.90658 2.8424 9.86138 2.868 9.81738C2.8504 9.81938 2.8332 9.82178 2.8156 9.82378H2.81601Z" fill="#D1FF00"/>
<path d="M2.75633 10.193C2.76793 10.1122 2.77994 10.0318 2.79314 9.95142C2.74834 10.0318 2.70353 10.1118 2.66113 10.1934C2.67473 10.1934 2.68753 10.1954 2.70113 10.1954C2.72033 10.1954 2.73793 10.1938 2.75633 10.193Z" fill="#D1FF00"/>
<path d="M0.666787 16.6522C0.171587 16.5314 -0.304418 16.3666 -0.758818 16.1626C-1.18802 16.7622 -1.66522 17.325 -2.18562 17.8454C-2.38282 18.0426 -2.58841 18.2314 -2.79761 18.4162C-2.58721 18.8658 -2.40362 19.327 -2.24442 19.797C-2.01162 19.4926 -1.76121 19.2022 -1.48921 18.9302C-0.847209 18.2882 -0.118008 17.7626 0.671592 17.3594C0.668792 17.249 0.666787 17.1386 0.666787 17.0278V16.6522Z" fill="#D1FF00"/>
<path d="M1.87724 16.8566C1.87964 16.8558 1.88165 16.855 1.88405 16.8542C1.70485 16.1214 1.60925 15.3526 1.60925 14.557C1.60925 13.0022 1.97444 11.5146 2.66124 10.193C2.43004 10.1882 2.21683 10.1442 2.02563 10.0654C1.77203 11.0838 1.40084 12.0686 0.918838 12.9986C0.840438 13.2118 0.756036 13.4222 0.667236 13.6306V16.6522C1.06004 16.7482 1.46365 16.8174 1.87765 16.8566H1.87724Z" fill="#D1FF00"/>
<path d="M2.75632 10.1931C2.66672 10.8183 2.61792 11.4563 2.61792 12.1055V13.0667C2.61792 13.6307 2.65273 14.1907 2.72073 14.7439C2.67153 15.2103 2.64673 15.6831 2.64673 16.1623V16.6415C3.28513 16.4951 3.94552 16.4175 4.61872 16.4175C4.76592 16.4175 4.91233 16.4219 5.05833 16.4291C5.17793 15.8207 5.23952 15.1943 5.23952 14.5567C5.23952 12.8223 4.78233 11.1659 3.92993 9.73267C3.91633 9.73307 3.90273 9.73267 3.88913 9.73387C3.88793 9.73507 3.88633 9.73707 3.88513 9.73827C3.59593 10.0275 3.23233 10.1811 2.75673 10.1927L2.75632 10.1931Z" fill="#D1FF00"/>
<path d="M6.06077 30.1377V29.8401C5.83837 29.7709 5.61797 29.6973 5.39917 29.6189C5.48437 31.6205 6.01436 33.5337 6.90796 35.2453L6.91796 35.2161C7.41036 33.8045 8.12397 32.5161 9.00997 31.3817C8.18197 31.0437 7.39517 30.6269 6.65997 30.1377H6.06077Z" fill="#D1FF00"/>
<path d="M13.4096 33.0418C13.2392 32.8122 13.084 32.5718 12.944 32.3222C11.7932 32.2266 10.6844 31.9862 9.63477 31.6182C10.0732 32.9774 10.68 34.2626 11.4512 35.4502C11.682 35.2726 11.9016 35.0818 12.1072 34.8762C12.638 34.3454 13.0804 33.7258 13.4096 33.0418Z" fill="#D1FF00"/>
<path d="M9.41729 30.8854C9.52249 30.7634 9.6301 30.6434 9.7393 30.525C9.5965 30.515 9.4541 30.5038 9.3125 30.4902C9.3453 30.623 9.38169 30.7538 9.41729 30.8854Z" fill="#D1FF00"/>
<path d="M9.01001 31.3814C9.21561 31.4654 9.424 31.5442 9.6344 31.6178C9.5564 31.3758 9.4844 31.1314 9.4172 30.885C9.2776 31.047 9.14201 31.2126 9.01001 31.3814Z" fill="#D1FF00"/>
<path d="M13.9004 31.6316C13.4052 31.5184 12.9204 31.3772 12.448 31.2112C12.58 31.5972 12.7464 31.9688 12.9444 32.322C13.1912 32.3424 13.4396 32.356 13.69 32.3628C13.7736 32.1248 13.844 31.8808 13.9008 31.6316H13.9004Z" fill="#D1FF00"/>
<path d="M10.9199 30.5649C11.4127 30.8109 11.9227 31.0269 12.4475 31.2113C12.3691 30.9817 12.3027 30.7469 12.2495 30.5081C11.8099 30.5445 11.3667 30.5637 10.9199 30.5645V30.5649Z" fill="#D1FF00"/>
<path d="M4.47115 28.3202C4.39395 28.3134 4.31836 28.3026 4.24436 28.2874C3.97476 28.4498 3.70036 28.6038 3.42236 28.7498C4.06036 29.0842 4.72036 29.375 5.39916 29.6194C5.39276 29.473 5.38995 29.3254 5.38875 29.1782C5.06955 28.9066 4.76356 28.6206 4.47156 28.3206L4.47115 28.3202Z" fill="#D1FF00"/>
<path d="M6.03184 27.5994C5.96504 27.7018 5.88865 27.7986 5.80145 27.8858C5.68465 28.0026 5.54663 28.1014 5.38623 28.177V29.0462C5.38623 29.0902 5.38823 29.1338 5.38863 29.1774C5.60743 29.3638 5.83024 29.5454 6.06064 29.7174V27.5994H6.03184Z" fill="#D1FF00"/>
<path d="M7.36844 27.9909V30.1373H7.15723C7.86163 30.3021 8.58124 30.4205 9.31244 30.4897C9.22884 30.1517 9.15802 29.8089 9.09482 29.4633C8.47842 29.0213 7.90084 28.5285 7.36844 27.9905V27.9909Z" fill="#D1FF00"/>
<path d="M10.0925 30.1566C9.97246 30.2766 9.85526 30.4002 9.73926 30.525C10.1193 30.551 10.502 30.565 10.8872 30.565C10.898 30.565 10.9089 30.565 10.9201 30.565C10.6477 30.429 10.3808 30.2842 10.1196 30.1306C10.1108 30.1394 10.1013 30.1478 10.0925 30.1566Z" fill="#D1FF00"/>
<path d="M12.5377 25.4922C11.3493 25.213 10.2501 24.613 9.3673 23.743C9.2849 23.7298 9.20291 23.7154 9.12131 23.7002C9.07651 23.765 9.0313 23.8294 8.9857 23.8938C8.9709 24.0102 8.95332 24.1262 8.94172 24.2426C8.84732 24.8842 8.79932 25.5354 8.79932 26.1914C8.79932 27.3114 8.90131 28.4046 9.09531 29.4642C9.42611 29.7014 9.76811 29.9242 10.1205 30.131C10.7245 29.5302 11.3837 28.9886 12.0885 28.5142V27.9026C12.0885 27.0702 12.2449 26.2542 12.5385 25.4926L12.5377 25.4922Z" fill="#D1FF00"/>
<path d="M14.0696 27.4142C13.378 27.7258 12.714 28.0918 12.0876 28.5138V29.0466C12.0876 29.5458 12.144 30.035 12.2496 30.5082C12.8636 30.4578 13.47 30.3738 14.0668 30.2558C14.0676 30.2162 14.0696 30.177 14.0696 30.1374V27.4138V27.4142Z" fill="#D1FF00"/>
<path d="M13.2252 24.1685C12.9468 24.5837 12.7168 25.0277 12.5376 25.4921C13.036 25.6093 13.5492 25.6713 14.0692 25.6713V24.6397C13.7752 24.5025 13.4936 24.3453 13.2248 24.1685H13.2252Z" fill="#D1FF00"/>
<path d="M13.6183 23.4685C13.2867 23.5677 12.9475 23.6465 12.6035 23.7089C12.8011 23.8741 13.0091 24.0269 13.2255 24.1685C13.3427 23.9937 13.4679 23.8237 13.6019 23.6597C13.6059 23.5957 13.6127 23.5321 13.6187 23.4685H13.6183Z" fill="#D1FF00"/>
<path d="M12.6033 23.7089C12.0737 23.2665 11.6153 22.7429 11.2429 22.1589C10.7501 22.3945 10.2393 22.5981 9.71532 22.7729C9.55372 23.0457 9.38332 23.3133 9.20532 23.5765C9.24692 23.6205 9.28773 23.6653 9.33093 23.7085C9.34293 23.7205 9.35531 23.7313 9.36731 23.7429C9.86131 23.8213 10.3685 23.8641 10.8881 23.8641C11.4713 23.8641 12.0445 23.8101 12.6037 23.7089H12.6033Z" fill="#D1FF00"/>
<path d="M13.9404 21.9517C13.7752 22.4405 13.6668 22.9493 13.6184 23.4681C13.7704 23.4225 13.9208 23.3729 14.0696 23.3197V23.2629C14.0696 22.8141 14.0248 22.3757 13.9404 21.9517Z" fill="#D1FF00"/>
<path d="M11.5697 18.0437C11.3509 19.0525 11.0365 20.0317 10.6321 20.9709C10.6377 20.9785 10.6425 20.9861 10.6481 20.9937C10.8077 21.4041 11.0101 21.7921 11.2433 22.1589C12.0713 21.7633 12.8513 21.2841 13.5745 20.7341C13.1421 19.6749 12.4473 18.7513 11.5697 18.0441V18.0437Z" fill="#D1FF00"/>
<path d="M-0.598301 25.739C-0.812301 25.5182 -1.01671 25.2906 -1.21631 25.0598C-0.982309 26.0562 -0.859512 27.0834 -0.859512 28.1234V29.027C-0.859512 29.2702 -0.868313 29.5114 -0.881113 29.7514C-0.783913 29.8994 -0.687909 30.0486 -0.596309 30.201C0.810491 29.8986 2.16009 29.4106 3.42289 28.7494C1.94809 27.9762 0.59209 26.967 -0.59791 25.739H-0.598301Z" fill="#D1FF00"/>
<path d="M4.74722 24.2338C4.74722 24.2338 4.74522 24.2306 4.74442 24.229C4.54722 24.2586 4.37963 24.3402 4.24603 24.4738C3.99363 24.7262 3.85962 25.1546 3.85962 25.7242C3.85962 26.6374 4.22482 27.2722 4.95562 27.2722C5.12842 27.2722 5.27802 27.2422 5.40722 27.1882C5.43322 26.6918 5.48563 26.2026 5.56403 25.7218C5.26203 25.245 4.98802 24.7486 4.74722 24.2334V24.2338Z" fill="#D1FF00"/>
<path d="M3.24924 23.6691C3.27964 23.6387 3.31203 23.6111 3.34363 23.5831C3.13003 23.5919 2.91604 23.5979 2.70084 23.5979C2.28844 23.5979 1.87764 23.5807 1.46924 23.5471C1.75484 24.3331 2.11363 25.0839 2.53443 25.7935C2.53403 25.7703 2.53203 25.7479 2.53203 25.7243C2.53203 24.8303 2.79764 24.1203 3.24924 23.6687V23.6691Z" fill="#D1FF00"/>
<path d="M6.01292 26.3875C6.06452 26.1815 6.08972 25.9491 6.08972 25.6959C6.08972 25.2563 5.98212 24.8947 5.78812 24.6387C5.69892 24.9947 5.62372 25.3559 5.56372 25.7223C5.70692 25.9487 5.85653 26.1703 6.01253 26.3875H6.01292Z" fill="#D1FF00"/>
<path d="M7.61921 23.2893C7.53601 23.3029 7.45201 23.3149 7.36841 23.3269V25.8185C7.96201 25.2149 8.5016 24.5713 8.9856 23.8929C8.9944 23.8221 9.00241 23.7513 9.01241 23.6805C8.53241 23.5853 8.06761 23.4537 7.61921 23.2893Z" fill="#D1FF00"/>
<path d="M6.08969 23.8786H6.10889V23.5518C6.08129 23.6322 6.0553 23.713 6.0293 23.7938C6.0493 23.8222 6.07129 23.849 6.08969 23.8786Z" fill="#D1FF00"/>
<path d="M9.05301 23.4109C9.03821 23.5009 9.02501 23.5909 9.01221 23.6809C9.04821 23.6881 9.08502 23.6933 9.12102 23.7001C9.14942 23.6589 9.17741 23.6181 9.20541 23.5769C9.15381 23.5225 9.10261 23.4673 9.05301 23.4113V23.4109Z" fill="#D1FF00"/>
<path d="M8.75952 23.055C8.85312 23.1766 8.95072 23.2954 9.05272 23.411C9.07752 23.2578 9.10553 23.1046 9.13593 22.9514C9.01073 22.987 8.88632 23.023 8.75952 23.055Z" fill="#D1FF00"/>
<path d="M-0.616455 23.2289C0.067545 23.3825 0.764341 23.4897 1.46954 23.5473C1.32714 23.1557 1.20275 22.7557 1.09675 22.3481C0.558348 22.7025 -0.016055 22.9961 -0.616455 23.2289Z" fill="#D1FF00"/>
<path d="M5.70601 23.4575C5.84041 23.4551 5.9752 23.4535 6.1088 23.4475V23.2635H6.21241C6.27641 23.0899 6.3432 22.9175 6.4144 22.7475C5.2332 22.1087 4.214 21.2207 3.422 20.1487C3.3232 20.2819 3.22001 20.4123 3.11401 20.5403C3.36361 21.4623 3.70921 22.3443 4.13921 23.1759C4.29121 23.1399 4.45081 23.1195 4.61841 23.1195C5.06561 23.1195 5.42721 23.2451 5.70601 23.4575Z" fill="#D1FF00"/>
<path d="M8.75975 23.0549C8.10655 22.2057 7.66735 21.2133 7.47695 20.1621C7.37815 20.4833 7.29054 20.8081 7.21654 21.1369C6.91454 21.6525 6.64655 22.1905 6.41455 22.7473C6.79975 22.9557 7.20216 23.1365 7.61936 23.2897C8.00536 23.2273 8.38576 23.1497 8.76016 23.0553L8.75975 23.0549Z" fill="#D1FF00"/>
<path d="M7.36841 16.5618V17.0278C7.36841 17.157 7.37201 17.285 7.37921 17.4122C7.37201 17.5394 7.36841 17.6674 7.36841 17.7966V18.9698C7.36841 19.3726 7.4064 19.7714 7.4772 20.1626C7.844 18.9678 8.37641 17.8282 9.06081 16.7782C8.52001 16.6374 7.95321 16.5622 7.36841 16.5622V16.5618Z" fill="#D1FF00"/>
<path d="M10.0432 19.9962C9.66039 20.9043 9.36239 21.8511 9.15839 22.8279C9.14999 22.8691 9.14439 22.9102 9.13599 22.951C9.33079 22.8958 9.52399 22.8363 9.71519 22.7723C10.0592 22.1915 10.3648 21.5894 10.6316 20.9706C10.4072 20.6622 10.2108 20.3358 10.0428 19.9958L10.0432 19.9962Z" fill="#D1FF00"/>
<path d="M9.34839 16.8594V17.0278C9.34839 18.0674 9.59119 19.0814 10.0432 19.9962C10.3692 19.223 10.7568 18.4786 11.2044 17.7698C10.6424 17.3766 10.0184 17.0662 9.34839 16.8594Z" fill="#D1FF00"/>
<path d="M5.05831 16.4294C5.03631 16.541 5.01111 16.6514 4.98511 16.7618H5.46991C6.03111 16.7618 6.5763 16.6918 7.0971 16.5618H6.20591C5.83031 16.4926 5.44711 16.4486 5.05831 16.4294Z" fill="#D1FF00"/>
<path d="M1.8849 16.8571C1.8825 16.8571 1.8797 16.8571 1.8773 16.8567C1.4625 16.9935 1.05971 17.1615 0.671309 17.3595C0.671709 17.3775 0.671309 17.3959 0.672109 17.4143C0.668509 17.5415 0.666504 17.6695 0.666504 17.7975V18.9703C0.666504 20.1371 0.816504 21.2691 1.0965 22.3483C1.6105 22.0103 2.09251 21.6191 2.53531 21.1767C2.73931 20.9727 2.93131 20.7599 3.11371 20.5399C2.99811 20.1123 2.90291 19.6767 2.82971 19.2335C2.41331 18.5011 2.0921 17.7043 1.8849 16.8571Z" fill="#D1FF00"/>
<path d="M4.23163 16.7617C3.73283 16.8509 3.22122 16.8965 2.70122 16.8965C2.68322 16.8965 2.66522 16.8953 2.64722 16.8953V17.0281C2.64722 17.7797 2.71123 18.5157 2.83003 19.2337C3.01043 19.5509 3.20682 19.8573 3.42202 20.1485C4.16922 19.1401 4.69762 17.9913 4.98562 16.7621H4.23163V16.7617Z" fill="#D1FF00"/>
<path d="M2.64707 16.6418C2.38907 16.701 2.13468 16.7722 1.88428 16.8546C1.88428 16.8554 1.88468 16.8566 1.88508 16.8574C2.13588 16.881 2.38987 16.8938 2.64707 16.8954V16.6422V16.6418Z" fill="#D1FF00"/>
<path d="M2.30666 7.71621V5.66821C2.04826 6.14021 1.81985 6.63101 1.61865 7.13541C1.85625 7.31701 2.08586 7.51061 2.30666 7.71661V7.71621Z" fill="#D1FF00"/>
<path d="M0.999238 5.12824H2.30684V5.66824C2.34084 5.60624 2.37723 5.54624 2.41203 5.48504C2.36283 4.09024 2.10243 2.74944 1.65883 1.49464C1.65723 1.47904 1.65483 1.46384 1.65283 1.44824C0.917632 1.96704 0.222424 2.55144 -0.425176 3.19904L-0.426367 3.20024C-1.11357 3.88744 -1.72957 4.62904 -2.27197 5.41424C-1.09757 5.63264 0.00803828 6.06944 0.999238 6.70424V5.12904V5.12824Z" fill="#D1FF00"/>
<path d="M0.999268 6.70337V8.34897C0.999268 8.53377 1.02087 8.70897 1.05927 8.87337C1.20647 8.27697 1.39486 7.69697 1.61886 7.13497C1.41806 6.98177 1.21087 6.83897 0.999268 6.70337Z" fill="#D1FF00"/>
<path d="M1.05939 8.87378C0.952995 9.30458 0.867799 9.74338 0.804199 10.1898C1.143 10.1042 1.4862 10.0322 1.8318 9.96978C1.4446 9.74298 1.17259 9.35818 1.05939 8.87418V8.87378Z" fill="#D1FF00"/>
<path d="M2.30688 8.15695C2.30688 8.24015 2.31528 8.31936 2.33048 8.39416C2.35368 8.19496 2.37207 7.99496 2.38647 7.79456C2.35967 7.76896 2.33408 7.74175 2.30688 7.71655V8.15695Z" fill="#D1FF00"/>
<path d="M1.83203 9.96947C1.89363 10.0055 1.95843 10.0379 2.02562 10.0659C2.03683 10.0211 2.04723 9.97586 2.05803 9.93066C1.98243 9.94306 1.90723 9.95587 1.83203 9.96947Z" fill="#D1FF00"/>
<path d="M-1.46141 14.5569C-1.46141 14.9609 -1.543 15.3381 -1.689 15.6749C-1.3914 15.8569 -1.07981 16.0189 -0.758613 16.1629C-0.196213 15.3777 0.282992 14.5297 0.666992 13.6305V12.0957C0.666992 11.4481 0.715399 10.8125 0.804199 10.1897C-0.708601 10.5725 -2.14661 11.1857 -3.47021 12.0077C-2.25581 12.2517 -1.46141 13.2765 -1.46141 14.5569Z" fill="#D1FF00"/>
<path d="M26.4128 -3.91187H25.1052V1.02053H26.4128V-3.91187Z" fill="#D1FF00"/>
<path d="M26.413 1.78931H26.0286C26.1586 1.89051 26.287 1.99331 26.413 2.09891V1.78931Z" fill="#D1FF00"/>
<path d="M25.1824 2.96264C25.1568 2.93544 25.1308 2.90864 25.1052 2.88184V2.96264H25.1824Z" fill="#D1FF00"/>
<path d="M39.8101 1.4045C39.8137 1.2769 39.8157 1.1485 39.8153 1.0205V-3.9119C39.8153 -7.4667 38.4033 -10.8755 35.8897 -13.3891C33.3761 -15.9027 29.9673 -17.3147 26.4125 -17.3147H25.1049C21.4037 -17.3147 18.0533 -15.8147 15.6277 -13.3891C13.8037 -11.5651 12.5037 -9.2179 11.9709 -6.5923C14.1825 -5.3631 16.0101 -3.5271 17.2277 -1.3079C17.6241 -1.2983 18.0165 -1.2751 18.4037 -1.2363V-3.9115C18.4037 -5.7619 19.1537 -7.4375 20.3665 -8.6499C21.5793 -9.8627 23.2545 -10.6127 25.1049 -10.6127H26.4125C30.1137 -10.6127 33.1141 -7.6123 33.1137 -3.9115V1.0209C33.1137 1.1501 33.1101 1.2789 33.1029 1.4065C33.1101 1.5341 33.1138 1.6621 33.1141 1.7901V2.6937C34.5677 2.2753 36.1029 2.0581 37.6829 2.0581C38.4053 2.0581 39.1169 2.1029 39.8153 2.1893V1.7897C39.8153 1.6609 39.8133 1.5325 39.8097 1.4049L39.8101 1.4045Z" fill="#D1FF00"/>
<path d="M30.6692 8.13843C30.9044 8.77563 31.0964 9.43483 31.242 10.1132C31.6404 10.1652 32.03 10.2436 32.4092 10.3464C33.8932 9.31643 35.7176 8.75923 37.6828 8.75923C37.952 8.75923 38.2168 8.77123 38.4788 8.79123C38.8432 8.03643 39.1352 7.24883 39.3532 6.43803C37.5228 5.04003 35.3716 4.08643 33.0804 3.63403C32.9228 5.21643 32.2152 6.63683 31.1512 7.70083C30.9976 7.85443 30.8368 8.00003 30.6692 8.13803V8.13843Z" fill="#D1FF00"/>
<path d="M31.9068 10.7209C31.7284 10.7477 31.5516 10.7797 31.3748 10.8125C31.3932 10.9233 31.4108 11.0345 31.4264 11.1465C31.5816 10.9989 31.7408 10.8557 31.9068 10.7209Z" fill="#D1FF00"/>
<path d="M33.1611 10.5887C32.9155 10.4967 32.6647 10.4159 32.4091 10.3467C32.2375 10.4659 32.0687 10.5895 31.9067 10.7215C32.3207 10.6595 32.7395 10.6175 33.1611 10.5891V10.5887Z" fill="#D1FF00"/>
<path d="M32.6326 12.7116C32.3166 12.528 31.9926 12.356 31.6626 12.1936C31.7594 12.5056 31.843 12.8232 31.917 13.1444C32.1522 12.994 32.3906 12.8496 32.633 12.7112L32.6326 12.7116Z" fill="#D1FF00"/>
<path d="M28.6355 10.1329C28.6823 10.4517 28.7155 10.7753 28.7395 11.1013C28.9747 11.1641 29.2087 11.2321 29.4411 11.3053C30.0719 11.1001 30.7175 10.9345 31.3751 10.8125C31.3363 10.5773 31.2919 10.3441 31.2423 10.1133C30.8431 10.0613 30.4355 10.0337 30.0203 10.0337C29.5299 10.0337 29.0695 10.0701 28.6355 10.1329Z" fill="#D1FF00"/>
<path d="M31.4962 11.6911C31.477 11.5083 31.4521 11.3271 31.4265 11.1467C31.3765 11.1943 31.3253 11.2403 31.2765 11.2891C31.1109 11.4547 30.9554 11.6271 30.8062 11.8043C31.0966 11.9263 31.3817 12.0563 31.6621 12.1943C31.6097 12.0255 31.555 11.8575 31.4962 11.6915V11.6911Z" fill="#D1FF00"/>
<path d="M28.7801 12.0953V12.7821C29.1077 12.9905 29.4261 13.2121 29.7337 13.4473C30.0209 12.8613 30.3797 12.3101 30.8061 11.8037C30.7709 11.7889 30.7361 11.7733 30.7005 11.7585C30.2869 11.5881 29.8657 11.4397 29.4409 11.3049C29.2141 11.3789 28.9889 11.4577 28.7661 11.5421C28.7737 11.7257 28.7801 11.9097 28.7801 12.0953Z" fill="#D1FF00"/>
<path d="M31.6881 15.2801C31.8645 15.2045 32.0401 15.1261 32.2133 15.0429C32.1597 14.3957 32.0589 13.7625 31.9165 13.1445C31.4457 13.4461 30.9897 13.7721 30.5493 14.1229C30.9521 14.4849 31.3313 14.8721 31.6881 15.2801Z" fill="#D1FF00"/>
<path d="M28.958 16.1193C28.9824 15.9005 29.014 15.6833 29.0556 15.4685C28.9624 15.5633 28.8708 15.6589 28.78 15.7553V16.1501C28.8392 16.1393 28.8988 16.1305 28.958 16.1189V16.1193Z" fill="#D1FF00"/>
<path d="M29.1568 15.3651C29.5996 14.9223 30.0652 14.5087 30.5492 14.1231C30.2868 13.8871 30.014 13.6623 29.7332 13.4475C29.4204 14.0855 29.1916 14.7639 29.0552 15.4691C29.0892 15.4347 29.1224 15.3995 29.1564 15.3651H29.1568Z" fill="#D1FF00"/>
<path d="M18.4039 0.391719V-0.95988C18.0419 -1.04348 17.6751 -1.11388 17.3027 -1.16748C17.5283 -0.744681 17.7299 -0.30748 17.9099 0.14052C18.0759 0.22092 18.2403 0.305318 18.4039 0.391318V0.391719Z" fill="#D1FF00"/>
<path d="M26.1167 9.66372C26.1731 9.84332 26.2267 10.0237 26.2771 10.2053C26.5583 10.1693 26.8443 10.1485 27.1355 10.1485H28.3951C28.4343 10.1485 28.4735 10.1485 28.5131 10.1493C28.5531 10.1429 28.5951 10.1381 28.6355 10.1325C28.5959 9.86332 28.5487 9.59652 28.4935 9.33252C27.8383 9.54652 27.1391 9.66372 26.4127 9.66332H26.1171L26.1167 9.66372Z" fill="#D1FF00"/>
<path d="M26.6084 11.6645C26.92 11.7901 27.226 11.9265 27.5256 12.0745C27.9308 11.8785 28.3448 11.7017 28.766 11.5425C28.76 11.3945 28.75 11.2477 28.7392 11.1013C27.9736 10.8969 27.1928 10.7493 26.3984 10.6589C26.4796 10.9909 26.548 11.3265 26.6084 11.6649V11.6645Z" fill="#D1FF00"/>
<path d="M26.8667 14.5569C26.8667 15.1629 26.8327 15.7633 26.7683 16.3565C27.3031 16.3421 27.8343 16.2993 28.3587 16.2225C28.4959 16.0645 28.6364 15.9093 28.78 15.7561V12.7825C28.3756 12.5253 27.9575 12.2881 27.5255 12.0745C27.2571 12.2045 26.9936 12.3433 26.7332 12.4893C26.8192 13.1697 26.8667 13.8597 26.8667 14.5569Z" fill="#D1FF00"/>
<path d="M24.1936 9.60013C24.1276 9.59093 24.0616 9.58054 23.9956 9.56934C24.03 9.63574 24.0652 9.70174 24.0976 9.76934C24.1296 9.71294 24.1608 9.65613 24.1936 9.59973V9.60013Z" fill="#D1FF00"/>
<path d="M24.8312 10.5557C24.7236 10.5537 24.6168 10.5481 24.5088 10.5481C24.4788 10.5481 24.4492 10.5489 24.4192 10.5493C24.4368 10.5997 24.4536 10.6505 24.4704 10.7013C24.5892 10.6497 24.7088 10.6005 24.8312 10.5557Z" fill="#D1FF00"/>
<path d="M26.3984 10.659C26.3612 10.507 26.3184 10.3566 26.2768 10.2058C25.7756 10.2698 25.2912 10.3874 24.8308 10.5558C25.358 10.5658 25.8808 10.6002 26.398 10.659H26.3984Z" fill="#D1FF00"/>
<path d="M24.8759 13.2153C24.9355 13.3369 24.9907 13.4605 25.0427 13.5853C25.5835 13.1805 26.1487 12.8161 26.7335 12.4889C26.6987 12.2121 26.6575 11.9373 26.6087 11.6645C25.9531 11.4001 25.2723 11.1865 24.5703 11.0273C24.7643 11.7169 24.8719 12.4493 24.8763 13.2153H24.8759Z" fill="#D1FF00"/>
<path d="M19.17 6.07178C19.0964 5.93138 19.0288 5.78818 18.9652 5.64298C18.9344 5.63538 18.904 5.62658 18.8728 5.61938V6.30298C18.9716 6.22578 19.0692 6.14658 19.17 6.07218V6.07178Z" fill="#D1FF00"/>
<path d="M24.0981 9.76929C23.9505 10.0317 23.8097 10.2981 23.6785 10.5689C23.9245 10.5565 24.1713 10.5501 24.4197 10.5489C24.3257 10.2817 24.2189 10.0209 24.0981 9.76929Z" fill="#D1FF00"/>
<path d="M23.6785 10.5688C23.1853 10.5932 22.6972 10.64 22.2148 10.7076C22.6672 10.728 23.1133 10.7712 23.5529 10.8356C23.5941 10.7464 23.6357 10.6572 23.6785 10.5688Z" fill="#D1FF00"/>
<path d="M22.2148 10.7076C22.1212 10.7032 22.0264 10.7028 21.9324 10.7004C21.9356 10.7164 21.94 10.7324 21.9432 10.7484C22.0336 10.734 22.124 10.72 22.2148 10.7076Z" fill="#D1FF00"/>
<path d="M23.5528 10.8357C23.4772 11.0005 23.4024 11.1657 23.3328 11.3329C23.554 11.1801 23.7844 11.0409 24.0236 10.9153C23.8672 10.8865 23.7108 10.8585 23.5528 10.8357Z" fill="#D1FF00"/>
<path d="M24.5697 11.0274C24.5389 10.9174 24.5057 10.8086 24.4705 10.7014C24.3185 10.7674 24.1697 10.839 24.0237 10.9158C24.2073 10.9494 24.3893 10.9866 24.5697 11.0274Z" fill="#D1FF00"/>
<path d="M22.2398 16.0548C22.347 14.4112 22.7158 12.8201 23.333 11.3333C22.9978 11.5649 22.6842 11.8249 22.397 12.1121C22.2866 12.2225 22.1814 12.338 22.0786 12.456V16.0181C22.1322 16.0305 22.1858 16.0436 22.2398 16.0552V16.0548Z" fill="#D1FF00"/>
<path d="M23.3812 15.0238C23.0388 15.3662 22.7152 15.7234 22.4084 16.0934C23.2796 16.2714 24.1812 16.365 25.1048 16.365H25.5584V16.1622C25.5584 15.269 25.3793 14.3942 25.0425 13.585C24.4601 14.021 23.9049 14.5002 23.3817 15.023H23.3812V15.0238Z" fill="#D1FF00"/>
<path d="M18.8728 9.7608C19.0568 10.0728 19.2216 10.3956 19.3676 10.7276C19.6736 10.7064 19.9804 10.692 20.2892 10.692H21.5968C21.7092 10.692 21.8204 10.6976 21.9324 10.7004C21.7184 9.6888 21.2752 8.7628 20.6612 7.976C20.5608 7.8872 20.462 7.796 20.3668 7.7004C20.1716 7.5052 19.9916 7.298 19.8236 7.0828C19.5288 6.8212 19.2112 6.5844 18.8736 6.3772V9.7604L18.8728 9.7608Z" fill="#D1FF00"/>
<path d="M20.1272 15.4061C20.2696 15.4633 20.4124 15.5201 20.5572 15.5721C20.7848 14.3937 21.3212 13.3265 22.0784 12.4557V12.0953C22.0784 11.6341 22.0316 11.1837 21.9428 10.7485C21.1424 10.8745 20.3588 11.0597 19.5972 11.3017C19.9688 12.3273 20.1652 13.4253 20.1652 14.5569C20.1652 14.8425 20.1512 15.1253 20.1268 15.4057L20.1272 15.4061Z" fill="#D1FF00"/>
<path d="M18.1747 14.4357V14.3281C18.1647 14.3577 18.1547 14.3877 18.1443 14.4173C18.1543 14.4233 18.1643 14.4293 18.1747 14.4353V14.4357Z" fill="#D1FF00"/>
<path d="M19.5976 11.3018C19.5272 11.1078 19.4508 10.9162 19.3676 10.7278C19.196 10.7398 19.0244 10.753 18.854 10.7714C18.8396 11.045 18.8148 11.3154 18.7844 11.5842C19.0524 11.4826 19.3236 11.389 19.5976 11.3018Z" fill="#D1FF00"/>
<path d="M11.708 1.405C11.7044 1.533 11.7024 1.6614 11.7024 1.7898V2.6702C12.0084 3.44581 12.1716 4.27861 12.1716 5.12821V5.33701C12.448 5.37381 12.7208 5.42301 12.9904 5.48341C13.3452 5.42541 13.706 5.39421 14.07 5.39421H15.3776C15.5128 5.39421 15.6468 5.39941 15.78 5.40741C15.9952 5.39701 16.3568 5.38461 16.8388 5.38461C17.5468 5.38461 18.2272 5.46581 18.8728 5.61901V5.42061C18.5668 4.64501 18.4036 3.81221 18.4036 2.96221V1.78901C18.4036 1.73501 18.4068 1.68221 18.4084 1.62861C18.2712 1.11981 18.104 0.623408 17.91 0.140608C16.6876 -0.451792 15.3888 -0.884993 14.0384 -1.14819C13.2332 -1.02859 12.4524 -0.837392 11.7024 -0.582192V1.02061C11.7024 1.14901 11.7044 1.277 11.708 1.405Z" fill="#D1FF00"/>
<path d="M18.8728 6.30249C18.8548 6.31689 18.8364 6.33049 18.8184 6.34489C18.8364 6.35569 18.8548 6.36649 18.8728 6.37769V6.30249Z" fill="#D1FF00"/>
<path d="M13.9187 5.74258C15.1695 6.16338 16.3139 6.84658 17.2839 7.76658C17.4055 7.63458 17.5283 7.50298 17.6559 7.37538L17.6583 7.37298C18.0259 7.00538 18.4147 6.66418 18.8183 6.34458C17.9207 5.80618 16.8863 5.47258 15.7799 5.40698C15.6899 5.41138 15.6231 5.41498 15.5875 5.41738C15.0067 5.45498 14.4483 5.56738 13.9187 5.74218V5.74258Z" fill="#D1FF00"/>
<path d="M15.3772 12.0952H15.3C15.3256 12.1224 15.3516 12.1492 15.3772 12.176V12.0952Z" fill="#D1FF00"/>
<path d="M17.4317 12.1729C17.2433 12.1105 17.0376 12.0857 16.8384 12.0857C16.3192 12.0857 16.0212 12.1049 16.0212 12.1049V12.8141C16.0532 12.8433 16.084 12.8737 16.1164 12.9029C16.5432 12.6381 16.982 12.3945 17.432 12.1729H17.4317Z" fill="#D1FF00"/>
<path d="M12.1718 6.47771C12.1826 6.51731 12.1942 6.55651 12.2054 6.59571C12.7266 6.23411 13.303 5.94531 13.919 5.74211C13.6154 5.64011 13.3058 5.55371 12.9902 5.48291C12.713 5.52811 12.4394 5.59011 12.1714 5.66931V6.47731L12.1718 6.47771Z" fill="#D1FF00"/>
<path d="M15.0135 11.7768C16.2307 11.2556 17.5239 10.9144 18.8535 10.7712C18.8659 10.5356 18.8727 10.2988 18.8727 10.0604V9.76125C18.5075 9.14205 18.0695 8.56325 17.5611 8.03885C17.4707 7.94565 17.3775 7.85565 17.2839 7.76685C16.2471 8.89125 15.4195 10.1756 14.8247 11.5592C14.8863 11.6328 14.9503 11.7048 15.0135 11.7772V11.7768Z" fill="#D1FF00"/>
<path d="M16.8962 13.5473C16.8962 13.1821 16.6942 13.0569 16.4058 13.0569C16.3706 13.0569 16.333 13.0573 16.2954 13.0581C16.4906 13.2289 16.691 13.3937 16.8962 13.5529V13.5473Z" fill="#D1FF00"/>
<path d="M18.1748 13.2686V14.3286C18.4696 13.4506 18.6768 12.533 18.7844 11.5842C18.3236 11.759 17.8724 11.9558 17.4316 12.173C17.844 12.3098 18.1748 12.6282 18.1748 13.2682V13.2686Z" fill="#D1FF00"/>
<path d="M11.9894 5.72733C12.0498 5.70773 12.1102 5.68773 12.1714 5.66973V5.33693C12.0846 5.32533 11.9978 5.31413 11.9106 5.30493C11.9354 5.44613 11.9602 5.58733 11.9894 5.72733Z" fill="#D1FF00"/>
<path d="M33.0804 3.63416C33.1024 3.41336 33.114 3.18936 33.114 2.96296V2.69336C32.4596 2.88176 31.8216 3.11056 31.2036 3.37936C31.8372 3.42656 32.4636 3.51256 33.0804 3.63416Z" fill="#D1FF00"/>
<path d="M31.2036 3.37932C30.8112 3.35012 30.4168 3.33252 30.02 3.33252C29.366 3.33252 28.7196 3.37132 28.084 3.44772H27.8208C28.1768 3.83852 28.5108 4.24932 28.822 4.67812C29.5744 4.17572 30.3712 3.74132 31.204 3.37932H31.2036Z" fill="#D1FF00"/>
<path d="M25.1824 2.96256C25.3544 3.14696 25.5224 3.33537 25.684 3.52937C26.164 3.47697 26.6484 3.44816 27.1356 3.44816H27.8208C27.3832 2.96736 26.9128 2.51697 26.4132 2.09937V2.96296H25.1828L25.1824 2.96256Z" fill="#D1FF00"/>
<path d="M25.1052 2.88143V1.78943H26.028C23.9028 0.133429 21.2896 -0.947772 18.4036 -1.23657V-0.959773C21.0112 -0.357373 23.326 1.00423 25.1048 2.88143H25.1052Z" fill="#D1FF00"/>
<path d="M28.4932 9.33278C29.2956 9.07078 30.032 8.66278 30.6692 8.13838C30.2096 6.89198 29.586 5.73038 28.8216 4.67798C28.274 5.04358 27.75 5.44558 27.252 5.88278C27.8148 6.95598 28.2376 8.11358 28.4932 9.33318V9.33278Z" fill="#D1FF00"/>
<path d="M26.5377 6.55065C26.7689 6.31945 27.0077 6.09745 27.2521 5.88265C26.8113 5.04185 26.2857 4.25305 25.6837 3.52905C24.7769 3.62785 23.8873 3.81945 23.0269 4.09665C23.9977 5.22865 24.7988 6.47905 25.4112 7.81745C25.7613 7.37785 26.1349 6.95345 26.5377 6.55065Z" fill="#D1FF00"/>
<path d="M18.4148 1.40489C18.4104 1.47889 18.4104 1.55409 18.4084 1.62889C18.7096 2.74489 18.8728 3.91729 18.8728 5.12849V5.42089C18.9024 5.49569 18.9332 5.56969 18.9652 5.64329C19.1612 5.69209 19.3537 5.74809 19.5425 5.81049C20.6169 5.07169 21.7908 4.49569 23.0268 4.09729C22.816 3.85169 22.6001 3.60929 22.3733 3.37529C21.1973 2.16169 19.8589 1.16169 18.4041 0.39209V1.02089C18.4041 1.15009 18.4076 1.27809 18.4148 1.40529V1.40489Z" fill="#D1FF00"/>
<path d="M26.1168 9.66378C25.9184 9.03378 25.6856 8.41618 25.4112 7.81738C24.96 8.38458 24.5536 8.97978 24.1936 9.60018C24.494 9.64138 24.798 9.66378 25.1048 9.66378H26.1168Z" fill="#D1FF00"/>
<path d="M19.8231 7.08326C20.1287 7.35486 20.4091 7.65366 20.6611 7.97646C21.6047 8.81286 22.7615 9.36246 23.9963 9.56966C23.0803 7.79726 21.5051 6.45486 19.5427 5.81006C19.4175 5.89606 19.2923 5.98166 19.1699 6.07206C19.3559 6.42686 19.5747 6.76526 19.8231 7.08366V7.08326Z" fill="#D1FF00"/>
<path d="M-0.918066 30.2673C-0.992066 31.0721 -1.13806 31.8557 -1.34766 32.6129C-0.760456 33.1777 -0.104464 33.6541 0.604336 34.0289C0.751936 34.2353 0.911542 34.4329 1.08074 34.6209C0.783542 33.0313 0.208345 31.5397 -0.596855 30.2009C-0.703655 30.2237 -0.810466 30.2461 -0.918066 30.2669V30.2673Z" fill="#D1FF00"/>
<path d="M1.12497 4.47925C1.12497 4.63245 1.22818 4.67565 1.29858 4.63005C1.33178 4.65205 1.37298 4.65245 1.40778 4.63045C1.44098 4.65165 1.48137 4.65245 1.51577 4.63045C1.55057 4.65245 1.59259 4.65005 1.62339 4.63045C1.65659 4.65125 1.69699 4.65205 1.73099 4.63045C1.74779 4.64125 1.76657 4.64645 1.78497 4.64645C1.84137 4.64645 1.90218 4.59645 1.90218 4.48645C1.90218 4.38965 1.85417 4.32205 1.78497 4.32205C1.77657 4.32205 1.75378 4.32365 1.73058 4.33765C1.71498 4.32725 1.69698 4.32205 1.67698 4.32205C1.66858 4.32205 1.64618 4.32365 1.62298 4.33765C1.59298 4.31845 1.55058 4.31565 1.51618 4.33805C1.48578 4.31805 1.44297 4.31565 1.40817 4.33805C1.40177 4.33365 1.39457 4.33005 1.38737 4.32765C1.40177 4.30085 1.41058 4.26445 1.41058 4.21605C1.41058 4.18845 1.40738 4.16485 1.40218 4.14445C1.43938 4.12565 1.47178 4.08085 1.47538 3.99725C1.51898 3.98725 1.56219 3.94605 1.57019 3.85645C1.62499 3.84685 1.66258 3.79245 1.66978 3.71285C1.71898 3.70325 1.76897 3.65445 1.76897 3.54125C1.76897 3.53685 1.76897 3.53245 1.76897 3.52805C1.81497 3.51405 1.85858 3.46405 1.85858 3.35765C1.85858 3.31685 1.85179 3.28445 1.84099 3.25925C1.88179 3.23365 1.90698 3.17605 1.90698 3.10085C1.90698 3.02045 1.88137 2.97325 1.84897 2.94925C1.86937 2.92165 1.88298 2.88005 1.88298 2.82045C1.88298 2.72165 1.84418 2.67245 1.80138 2.65565C1.80298 2.64285 1.80378 2.62925 1.80378 2.61445C1.80378 2.50205 1.74699 2.45045 1.69019 2.44845C1.66179 2.35805 1.57778 2.34165 1.52698 2.37605C1.47818 2.34285 1.39778 2.35685 1.36698 2.43965C1.30498 2.43725 1.24497 2.48765 1.24497 2.60525C1.24497 2.61445 1.24497 2.62285 1.24577 2.63125C1.20097 2.64645 1.15978 2.69525 1.15978 2.79765C1.15978 2.90005 1.20617 2.97245 1.27817 2.97245C1.33737 2.97245 1.39737 2.91845 1.39737 2.79765C1.39737 2.78845 1.39698 2.77925 1.39618 2.77085C1.42658 2.75965 1.45539 2.73245 1.47019 2.68285C1.48979 2.68365 1.51058 2.67685 1.52698 2.66565C1.54138 2.67565 1.55818 2.68165 1.57618 2.68285C1.58938 2.73605 1.61738 2.76565 1.64858 2.77845C1.64698 2.79125 1.64577 2.80525 1.64577 2.82045C1.64577 2.89085 1.66818 2.94605 1.70458 2.97365C1.68338 3.00165 1.66938 3.04365 1.66938 3.10125C1.66938 3.13925 1.67617 3.17285 1.68817 3.20045C1.64657 3.22565 1.62058 3.28285 1.62058 3.35805C1.62058 3.36365 1.62059 3.36885 1.62099 3.37405C1.57259 3.38885 1.53939 3.44045 1.53259 3.51365C1.47859 3.52445 1.44178 3.57845 1.43458 3.65685C1.38418 3.66645 1.33818 3.71565 1.33378 3.81285C1.27538 3.82645 1.23778 3.89085 1.23778 3.98205C1.23778 4.01005 1.24097 4.03405 1.24657 4.05485C1.20057 4.07765 1.17218 4.13685 1.17218 4.21605C1.17218 4.25805 1.18019 4.29485 1.19419 4.32325C1.15059 4.34685 1.12378 4.40365 1.12378 4.47885L1.12497 4.47925Z" fill="#231F20"/>
</g>
</svg>
