<svg width="386" height="32" viewBox="0 0 386 32" fill="none" xmlns="http://www.w3.org/2000/svg">
<path d="M0.999314 9.30978C0.999314 5.46525 2.45043 2.03534 4.20308 0H6.7661C5.25844 2.3934 4.16539 5.38987 4.16539 9.30978C4.16539 13.0224 5.31498 15.9435 6.72841 18.2992H4.18424C2.45043 16.1885 0.980469 13.0601 0.980469 9.30978H0.999314Z" fill="#231F20"/>
<path d="M10.1783 6.31374H6.91797V4.16533C8.97215 4.10879 10.5175 3.24189 10.8567 1.30078H13.4009V15.5293H10.1783V6.31374Z" fill="#231F20"/>
<path d="M17.434 9.30978C17.434 5.37102 16.341 2.3934 14.8145 0H17.4152C19.1678 2.03534 20.6189 5.46525 20.6189 9.30978C20.6189 13.1543 19.149 16.1696 17.4152 18.2992H14.8521C16.2844 15.9435 17.4529 13.0412 17.4529 9.30978H17.434Z" fill="#231F20"/>
<path d="M32.4153 26.6283C26.8747 26.6283 23.8594 22.0865 23.8594 14.7179C23.8594 7.34919 26.8747 2.80738 32.4153 2.80738C37.956 2.80738 40.8959 7.42457 40.8959 14.7179C40.8959 22.0111 37.9183 26.6283 32.4153 26.6283ZM32.4153 7.23612C29.9088 7.23612 28.6085 10.5907 28.6085 14.7367C28.6085 18.8828 29.89 22.2373 32.4153 22.2373C34.9406 22.2373 36.1468 18.977 36.1468 14.7367C36.1468 10.4964 34.9972 7.23612 32.4153 7.23612ZM45.1739 1.43164H50.2622V13.2667H54.5779V17.8462H50.2622V31.7167H45.1739V1.43164Z" fill="#231F20"/>
<path d="M86.9929 17.0374V20.4297H56.4629V17.0374H86.9929ZM59.6101 21.7866H83.8457V31.7371H79.0212L78.6254 31.0209H64.8115L64.4158 31.7371H59.5913V21.7866H59.6101ZM59.8928 2.28125H83.5819V10.7618H64.9811V12.2883H84.0907V15.6805H59.8928V7.5392H78.4935V6.0127H59.8928V2.28125ZM78.7574 27.6287V25.1788H64.7173V27.6287H78.7574Z" fill="#231F20"/>
<path d="M108.326 3.67428V7.91456H95.9067V20.2396C98.0363 20.2396 106.931 19.825 110.06 19.5989V24.0088C106.743 24.2726 94.4933 24.8192 90.8184 24.8192V3.67428H108.326ZM111.794 1.43164H116.882V14.2279H121.198V18.8074H116.882V31.7355H111.794V1.43164Z" fill="#231F20"/>
<path d="M136.048 25.6862V19.8063H123.082V15.9053H153.612V19.8063H141.117V25.6862H136.029H136.048ZM138.347 1.86523C145.716 1.86523 150.861 3.9948 150.861 8.21624C150.861 12.4377 145.697 14.3222 138.347 14.3222C130.997 14.3222 125.834 12.2492 125.834 8.21624C125.834 4.18326 131.054 1.86523 138.347 1.86523ZM151.011 31.1515H126.21V21.6155H131.299V27.0808H151.011V31.1515ZM138.347 10.4212C142.87 10.4212 145.603 9.61082 145.603 8.21624C145.603 6.82165 142.851 5.76629 138.347 5.76629C133.843 5.76629 131.091 6.78396 131.091 8.21624C131.091 9.64851 133.881 10.4212 138.347 10.4212Z" fill="#231F20"/>
<path d="M162.564 9.30978C162.564 5.44641 164.016 2.03534 165.768 0H168.35C166.842 2.3934 165.749 5.38987 165.749 9.30978C165.749 13.0224 166.899 15.9435 168.312 18.2992H165.768C164.034 16.1885 162.564 13.0601 162.564 9.30978Z" fill="#231F20"/>
<path d="M170.329 11.5902C171.629 10.1391 173.495 9.00836 174.927 7.99069C175.832 7.33109 176.378 6.70919 176.378 5.71036C176.378 4.52309 175.662 3.73157 174.437 3.73157C173.702 3.73157 173.174 3.92002 172.797 4.39117C172.345 4.88115 172.138 5.59729 172.138 6.44535H169.066C169.066 5.03192 169.368 3.99541 170.008 3.09081C170.819 1.90353 172.345 1.13086 174.512 1.13086C177.792 1.13086 179.62 3.10966 179.62 5.61614C179.62 7.23687 178.885 8.31107 177.867 9.17797C176.397 10.4972 174.267 11.4018 173.156 12.7587V12.8152H179.601V15.5101H168.84C168.859 13.7763 169.386 12.6456 170.329 11.5902Z" fill="#231F20"/>
<path d="M182.823 9.30978C182.823 5.37102 181.73 2.3934 180.203 0H182.804C184.556 2.03534 186.008 5.46525 186.008 9.30978C186.008 13.1543 184.538 16.1696 182.804 18.2992H180.241C181.673 15.9435 182.842 13.0412 182.842 9.30978H182.823Z" fill="#231F20"/>
<path d="M189.852 15.3963C189.852 12.2679 193.112 10.308 198.201 10.308C203.289 10.308 206.512 12.2679 206.512 15.3963C206.512 15.4717 206.512 15.5471 206.512 15.6413H211.581V12.5883H205.682V9.7049H188.684V6.14307H207.548V8.85685H211.581V1.43164H216.669V22.1619H211.581V19.3727H205.682V17.9405C204.401 19.5801 201.763 20.4658 198.22 20.4658C193.131 20.4658 189.871 18.6378 189.871 15.4152L189.852 15.3963ZM204.194 21.4835C211.788 21.4835 216.651 22.9346 216.651 26.7791C216.651 30.3786 211.807 31.9994 204.194 31.9994C196.58 31.9994 191.737 30.3786 191.737 26.7791C191.737 22.9346 196.693 21.4835 204.194 21.4835ZM204.363 1.99701V5.21963H191.85V1.99701H204.363ZM201.593 15.3963C201.593 14.3786 200.198 13.7002 198.201 13.7002C196.071 13.7002 194.771 14.3786 194.771 15.3963C194.771 16.3197 196.052 17.0547 198.201 17.0547C200.198 17.0547 201.593 16.3009 201.593 15.3963ZM204.194 28.4375C208.434 28.4375 211.393 28.0041 211.393 26.7791C211.393 25.5541 208.434 25.0453 204.194 25.0453C199.953 25.0453 196.995 25.5164 196.995 26.7791C196.995 28.0418 199.972 28.4375 204.194 28.4375Z" fill="#231F20"/>
<path d="M236.741 3.69312V7.93341H227.45V11.7591H236.553V15.8298H227.45V20.07C229.523 20.07 235.931 19.8062 237.702 19.5989V23.8769C235.837 24.0842 226.376 24.4234 222.701 24.4234V3.69312H236.741ZM238.626 29.4929V2.24201H243.205V12.7956H245.844V1.43164H250.593V31.7355H245.844V17.2055H243.205V29.4929H238.626Z" fill="#231F20"/>
<path d="M277.316 20.0135V24.2538C274.471 24.4234 259.809 24.6307 254.947 24.6307L254.607 20.3904C259.017 20.3904 274.395 20.1831 277.316 20.0135ZM265.255 2.67546C270.042 2.67546 274.414 4.95579 274.414 9.83682C274.414 14.4163 270.042 17.0359 265.255 17.0359C260.468 17.0359 256.059 14.4163 256.059 9.83682C256.059 4.95579 260.374 2.67546 265.255 2.67546ZM265.255 12.7956C267.762 12.7956 269.496 11.7025 269.496 9.83682C269.496 7.9711 267.762 6.91574 265.255 6.91574C262.617 6.91574 260.977 7.9711 260.977 9.83682C260.977 11.7025 262.598 12.7956 265.255 12.7956ZM278.183 1.43164H283.272V31.7355H278.183V1.43164Z" fill="#231F20"/>
<path d="M294.635 9.30978C294.635 5.44641 296.086 2.03534 297.839 0H300.42C298.913 2.3934 297.82 5.38987 297.82 9.30978C297.82 13.0224 298.969 15.9435 300.383 18.2992H297.839C296.105 16.1885 294.635 13.0601 294.635 9.30978Z" fill="#231F20"/>
<path d="M302.513 14.6251C301.382 13.7393 300.835 12.3636 300.816 10.8936H303.869C303.964 12.2505 304.736 13.3624 306.621 13.3624C308.129 13.3624 308.995 12.5709 308.995 11.2705C308.995 9.97018 308.072 9.29173 306.395 9.29173H305.547V7.03025H306.319C307.77 7.03025 308.656 6.40834 308.656 5.2776C308.656 4.22224 307.865 3.54379 306.64 3.54379C305.038 3.54379 304.322 4.618 304.246 5.6922H301.231C301.288 3.14803 303.229 1.15039 306.696 1.15039C309.674 1.15039 311.822 2.62036 311.822 5.10799C311.822 6.57795 310.899 7.44485 309.429 7.93484V7.97253C311.2 8.46252 312.256 9.61211 312.256 11.4967C312.256 14.4743 309.674 15.8689 306.734 15.8689C304.887 15.8689 303.549 15.4354 302.513 14.6439V14.6251Z" fill="#231F20"/>
<path d="M315.383 9.30978C315.383 5.37102 314.29 2.3934 312.764 0H315.364C317.117 2.03534 318.568 5.46525 318.568 9.30978C318.568 13.1543 317.098 16.1696 315.364 18.2992H312.801C314.234 15.9435 315.402 13.0412 315.402 9.30978H315.383Z" fill="#231F20"/>
<path d="M327.068 16.0747V8.61185H331.478V16.0371C336.227 15.9805 340.901 15.9051 342.447 15.8109V19.712C339.601 19.8816 325.919 20.0135 321.076 20.0135L320.736 16.1124C322.112 16.1124 324.43 16.1124 327.087 16.0747H327.068ZM335.304 6.72728H322.753V2.63777H340.015L339.676 14.5106H335.097L335.304 6.70844V6.72728ZM348.873 31.1513H324.411V21.9169H329.5V27.0806H348.873V31.1513ZM343.106 1.43164H348.195V12.2491H352.51V16.659H348.195V25.1772H343.106V1.43164Z" fill="#231F20"/>
<path d="M355.45 6.4446H374.145V10.176H367.455C368.303 12.2491 371.657 14.1902 375.332 14.4917C374.861 15.434 374.07 17.2055 373.599 18.1855C370.772 17.6389 367.379 16.0182 365.231 13.8321C363.177 16.169 359.822 17.997 356.392 18.5624C355.884 17.6201 354.791 15.8109 354.188 14.8686C358.692 14.3033 361.707 12.5129 362.367 10.1949H355.45V6.46344V6.4446ZM357.599 19.2031H381.589V26.8356H362.687V27.9852H382.531V31.3775H357.599V23.7826H376.501V22.5954H357.599V19.2031ZM370.791 2.12893V5.35155H358.842V2.12893H370.791ZM376.425 1.43164H381.514V9.7049H385.829V14.1148H381.514V18.6566H376.425V1.43164Z" fill="#231F20"/>
</svg>
