<?xml version="1.0" encoding="UTF-8"?>
<svg id="Layer_1" data-name="Layer 1" xmlns="http://www.w3.org/2000/svg" version="1.1" viewBox="0 0 1440 1024">
  <defs>
    <style>
      .cls-1 {
        fill: #bbbdbf;
        stroke-width: 0px;
      }
    </style>
  </defs>
  <g id="Layer_3" data-name="Layer 3">
    <g>
      <path class="cls-1" d="M90.9,124.05c-24.65,0-46.71,9.43-62.13,26.54-14.64,16.26-22.71,38.88-22.71,63.69,0,53.02,34.89,90.04,84.83,90.04s84.64-37.03,84.64-90.04-34.81-90.24-84.64-90.24ZM91.09,244.83c-5.99,0-19.94-2.98-19.94-30.55s13.94-30.74,19.94-30.74c16.84,0,19.36,19.26,19.36,30.74s-2.51,30.55-19.36,30.55Z"/>
      <path class="cls-1" d="M246.33,45.86c-3.43,0-6.73.28-9.9.83v-18.84l-18.27-18.27h-26.24l-18.27,18.27v137.96l18.27,18.27h25.28l3.42-3.42c7.69,4.14,16.65,6.31,26.49,6.31,35.41,0,60.14-29.01,60.14-70.56s-25.62-70.56-60.91-70.56ZM235.84,117c0-10.39,2.48-13.12,2.46-13.12,0,0,.55-.26,2.04-.26.6,0,.91.07.92.07.59.46,2.81,3.96,2.81,12.73,0,7.44-1.53,11.03-2.25,12-.12.01-.28.03-.51.03-4.52,0-5.46-6.22-5.46-11.45Z"/>
      <path class="cls-1" d="M367.76,277.74l9.17-10.11c-2.95-30.41-26.19-49.3-60.63-49.3s-58.59,20.06-58.59,49.91c0,11.8,3.36,20.6,8.43,27.21l-11.28,12.14c2.31,31.5,27.64,51.85,64.53,51.85s59.94-20.6,59.94-50.1c0-14.42-4.79-24.49-11.58-31.6Z"/>
      <path class="cls-1" d="M474.22,187.73c0-47.31-26.33-77.89-67.08-77.89-38.24,0-67.08,30.25-67.08,70.36s28.62,70.75,69.59,70.75c31.61,0,56.78-18.87,62.64-46.95l-6.43-7.91,8.36-8.36Z"/>
      <path class="cls-1" d="M547.75,115.99c-4.53-1.7-8.72-1.93-12.58-1.93-8.49,0-15.35,2.11-20.87,5.18l-4.02-4.02h-25.28l-18.27,18.27v98.98l18.27,18.27h26.24l18.27-18.27v-48.24c0-5.1,1.13-7.94,2.18-8.89,1.13-1.02,3.9-1.44,7.23-1.11l1.84.09h.58l18.27-18.27v-22.96l-11.86-17.11Z"/>
      <polygon class="cls-1" points="611.91 203.98 585.67 203.98 568.25 216.75 565.08 226.78 562.03 216.87 544.57 203.98 517.94 203.98 500.69 228.24 535.03 327.22 552.29 339.5 577.37 339.5 594.62 327.25 629.16 228.27 611.91 203.98"/>
      <path class="cls-1" d="M711.97,195.62c2.81,2.11,3.93,4.62,4.13,5.41-.01-.05-.3-1.24-.3-4.5v-50.36c0-34.78-21.85-54.73-59.94-54.73-43.3,0-59.87,26.97-60.89,50.07l8.51,8.9c-8.64,8.39-13.16,19.58-13.16,32.81,0,29.05,21.22,48.56,52.81,48.56,10.32,0,19.02-1.73,26.36-5.32l6.25,3h25.28l18.27-18.27v-.97l-7.3-14.61Z"/>
      <path class="cls-1" d="M759.72,298.25v-28.34l16.98-16.98v-17.37l-16.98-16.98v-13.89l-18.27-18.27h-25.66l-18.27,18.27v17.17l-13.7,13.7v17.37l13.7,13.7v44.38c0,25.51,17.7,42,45.09,42,10.88,0,17.31-.41,17.58-.42l17.09-18.23v-19.3l-17.56-16.81Z"/>
      <polygon class="cls-1" points="851.77 122.78 833.51 104.51 807.27 104.51 789 122.78 789 146.32 796.72 154.04 789 161.75 789 260.74 807.27 279 833.51 279 851.77 260.74 851.77 161.75 844.05 154.04 851.77 146.32 851.77 122.78"/>
      <path class="cls-1" d="M892.18,197.18c-39.89,0-69.98,30.33-69.98,70.56s30.08,70.56,69.98,70.56,69.98-30.33,69.98-70.56-30.08-70.56-69.98-70.56ZM888.21,255.22c.54-.72,1.21-1.63,3.98-1.63,5.93,0,6.82,8.86,6.82,14.15s-1.06,9.98-2.84,12.33c-.67.89-1.44,1.63-3.98,1.63-2.83,0-3.52-.92-4.02-1.59-1.75-2.33-2.8-6.95-2.8-12.37s1.06-10.14,2.84-12.52Z"/>
      <path class="cls-1" d="M1027.03,192.01c-9.84,0-18.57,2.16-26.15,6.45l-3.75-3.75h-25.66l-18.27,18.27v98.98l18.27,18.27h26.24l18.27-18.27v-56.15c0-.13.01-2.46.7-3.71v59.86l18.27,18.27h26.24l18.27-18.27v-64.64c0-32.05-22.05-55.31-52.42-55.31Z"/>
      <path class="cls-1" d="M634.91-27.8c-35.23,0-61.8,26.75-61.8,62.21s26.57,62.21,61.8,62.21,61.79-26.74,61.79-62.21-26.57-62.21-61.79-62.21ZM638.73,34.3c-1.32.81-2.75,1.24-3.82,1.24-1.5,0-2.86-.5-3.96-1.17,1.1-.7,2.46-1.2,3.96-1.2,1.39,0,2.72.47,3.82,1.14Z"/>
      <path class="cls-1" d="M785.79,34.73l-3.57-9.3-9.45-10.52-8.87-4.54c-18.35-1.96-33.73,2.09-44.46,11.73-5.05,4.54-11.14,12.25-13.44,24.16l-6.6,6.6-4.08,9.84v13.08l4.08,9.84,5.67,5.67v42.8l4.08,9.84,10.58,10.58,9.84,4.08h18.92l9.84-4.08,10.58-10.58,4.08-9.84v-39.74l8.73-8.73,4.08-9.84v-13.08l-2.81-6.79,2.81-6.57v-14.61Z"/>
      <path class="cls-1" d="M876.37,53.65v-1.82l-4.08-9.84-10.58-10.58-9.84-4.08h-18.93l-9.84,4.08-10.58,10.58-4.08,9.84v99.5l4.08,9.84,10.58,10.58,9.84,4.08h18.23l2.88-1.19c5.76,2.18,12.02,3.28,18.69,3.28,16.27,0,30.78-6.84,40.86-19.26,9.05-11.16,13.84-26.02,13.84-42.95,0-33.88-21.68-59.8-51.07-62.05ZM867.8,117.79c-.78,0-1.59-.14-2.39-.37-.02-.46-.03-.9-.03-1.3,0-.92.03-1.75.08-2.5,1.04-.36,2.11-.57,3.12-.57.4,0,.78.04,1.15.1.06.77.1,1.62.1,2.55,0,.65-.02,1.25-.05,1.81-.64.17-1.3.27-1.98.28Z"/>
      <path class="cls-1" d="M1001.25,56.48c0-40.37-23.99-67.5-59.71-67.5s-59.71,26.69-59.71,62.07,25.87,62.35,61.52,62.35c14.15,0,26.99-4.2,37.14-12.15,9.8-7.67,16.59-18.58,19.13-30.72l-1.55-6.38,3.18-7.68Z"/>
      <path class="cls-1" d="M1046.56,154.12l-1.87-3.73.5-.16c.3.96.38,1.57.38,1.57,0,0-.05-.42-.05-1.34v-36.32c0-12.49-3.43-23.58-9.93-32.07-6.54-8.55-19.6-18.73-44.63-18.73-36.71,0-54.19,23.57-55.23,46.93l2.74,7.29c-4.02,6.71-6.1,14.59-6.1,23.3,0,27.29,20.32,46.35,49.41,46.35,6.91,0,13.06-.92,18.59-2.79l4.93,1.12h18.23l9.84-4.08,10.58-10.58,4.08-9.84v-.69l-1.47-6.22Z"/>
      <path class="cls-1" d="M1120.28,37.73l-10.58-10.58-9.84-4.08h-18.93l-9.84,4.08-3.24,3.24-3.24-3.24-9.84-4.08h-18.79l-9.84,4.08-10.58,10.58-4.08,9.84v47.59c0,29.58,20.26,50.24,49.27,50.24,6.69,0,12.71-1,18.2-3.06l2.68,1.11h18.23l9.84-4.08,10.58-10.58,4.08-9.84V47.57l-4.08-9.84Z"/>
      <path class="cls-1" d="M1183.78,131.15l-8.37-8.01v-8.73l8.17-8.17,4.08-9.84v-12.52l-4.08-9.84-8.17-8.17v-4.26l-4.08-9.84-10.58-10.58-9.84-4.08h-18.51l-9.84,4.08-10.58,10.58-4.08,9.84v6.62l-5.81,5.8-4.08,9.84v12.52l4.08,9.84,5.81,5.8v26.24c0,24.5,18.03,41.61,43.84,41.61,7.77,0,12.5-.27,13.37-.33l9.29-4.37,9.9-10.56,3.77-9.52v-13.92l-4.29-10.05Z"/>
      <polygon class="cls-1" points="1228.51 32.95 1224.43 23.11 1213.85 12.53 1204.01 8.45 1185.09 8.45 1175.24 12.53 1164.66 23.11 1160.59 32.95 1160.59 49.93 1162.89 55.49 1160.59 61.06 1160.59 132.45 1164.66 142.29 1175.24 152.87 1185.09 156.95 1204.01 156.95 1213.85 152.87 1224.43 142.29 1228.51 132.45 1228.51 61.06 1226.2 55.49 1228.51 49.93 1228.51 32.95"/>
      <path class="cls-1" d="M1297.72,55.89l-3.57-9.3-9.45-10.52-8.87-4.54c-18.36-1.97-33.74,2.09-44.46,11.73-5.04,4.54-11.14,12.25-13.44,24.16l-6.6,6.6-4.08,9.84v13.08l4.08,9.84,5.66,5.66v42.8l4.08,9.84,10.58,10.58,9.84,4.08h18.93l9.84-4.08,10.58-10.58,4.08-9.84v-39.74l8.73-8.73,4.08-9.84v-13.08l-2.81-6.79,2.81-6.57v-14.61Z"/>
      <path class="cls-1" d="M1382.81,78.39l-10.58-10.58-9.84-4.08h-18.93l-9.84,4.08-3.24,3.24-3.24-3.24-9.84-4.08h-18.79l-9.84,4.08-10.58,10.58-4.08,9.84v47.59c0,29.58,20.26,50.24,49.27,50.24,6.69,0,12.71-1.01,18.2-3.06l2.68,1.11h18.23l9.84-4.08,10.58-10.58,4.08-9.84v-71.39l-4.08-9.84Z"/>
      <polygon class="cls-1" points="1414.31 -22.13 1403.73 -32.71 1393.89 -36.79 1374.97 -36.79 1365.12 -32.71 1354.54 -22.13 1350.47 -12.29 1350.47 87.21 1354.54 97.06 1365.12 107.64 1374.97 111.71 1393.89 111.71 1403.73 107.64 1414.31 97.06 1418.39 87.21 1418.39 -12.29 1414.31 -22.13"/>
      <path class="cls-1" d="M126.7,847.49l-4.68-12.21-12.86-14.3-11.64-5.95c-24.77-2.64-45.5,2.81-59.94,15.79-6.81,6.12-15.05,16.54-18.11,32.68l-9.11,9.11-5.35,12.92v17.78l5.35,12.92,7.9,7.9v58.47l5.35,12.92,14.38,14.39,12.92,5.35h25.73l12.92-5.35,14.38-14.39,5.35-12.92v-54.31l12.06-12.06,5.35-12.92v-17.78l-3.82-9.23,3.82-8.93v-19.87Z"/>
      <path class="cls-1" d="M218.5,769.88c-47.53,0-83.36,36.08-83.36,83.93s35.84,83.93,83.36,83.93,83.36-36.08,83.36-83.93-35.84-83.93-83.36-83.93ZM222.31,853.65c-1.36.66-2.73,1.02-3.81,1.02-1.46,0-2.83-.38-4.02-.94,2.37-1.15,5.44-1.21,7.83-.08Z"/>
      <path class="cls-1" d="M844.73,875.96l-9.34-13.47-8.61-6.7c-6.7-2.51-12.88-2.83-17.51-2.83-6.9,0-13.4,1.07-19.44,3.19l-4.97-2.06h-24.79l-12.92,5.35-14.39,14.39-5.35,12.92v97.07l5.35,12.92,14.39,14.39,12.92,5.35h25.73l12.92-5.35,14.39-14.39,5.35-12.92v-43.58l9.78-4.05,14.39-14.39,5.35-12.92v-22.52l-3.25-10.41Z"/>
      <path class="cls-1" d="M1213.32,856.37c-10.01,0-19.66,2.22-28.48,6.5-8.57-4.24-18.15-6.5-27.91-6.5-8.47,0-16.72,1.53-24.34,4.48l-4.42-1.83h-24.79l-12.92,5.35-14.39,14.39-5.35,12.92v97.07l5.35,12.92,14.39,14.39,12.92,5.35h25.73l12.92-5.35,3.26-3.26,3.26,3.26,12.92,5.35h25.73l12.92-5.35,3.26-3.26,3.26,3.26,12.92,5.35h25.73l12.92-5.35,14.39-14.39,5.35-12.92v-65.28c0-39.5-26.58-67.09-64.63-67.09Z"/>
      <path class="cls-1" d="M1430.65,820.61l4.36-13.16c-3.64-37.46-32.74-61.66-74.13-61.66s-72.2,25.59-72.2,63.68c0,8.58,1.45,16.43,4.32,23.49l-2.24,2.41-4.84,13.78c2.88,39.19,33.49,64.51,77.98,64.51s73.52-26.27,73.52-63.87c0-10.81-2.31-20.66-6.79-29.16Z"/>
    </g>
  </g>
</svg>