<svg width="163" height="44" viewBox="0 0 163 44" fill="none" xmlns="http://www.w3.org/2000/svg">
<path d="M33.1483 12.8629L31.1227 10.8228L21.9928 0L12.8484 10.8228L10.8228 12.8629L0 22.0072L10.8228 31.1516L12.8484 33.1772L21.9928 44L31.1371 33.1772L33.1628 31.1516L43.9855 22.0072L33.1628 12.8629H33.1483ZM32.0487 16.5525C31.875 16.5525 31.6869 16.5959 31.4554 16.6537C31.2384 16.7116 31.0214 16.7984 30.8333 16.8997C30.6018 17.0299 30.3992 17.1891 30.2545 17.3627C30.1098 17.5363 29.9796 17.7823 29.8639 18.1006C29.3864 19.5186 27.3897 25.4074 26.9701 26.6084C27.4475 28.5617 27.5778 31.7159 24.3657 33.6547C22.7307 34.6386 20.6327 34.2335 20.0105 33.3653C19.808 33.076 18.607 31.7593 20.2565 29.9507C20.2565 29.9507 20.2276 31.3831 21.1246 32.4972C21.8191 33.3509 22.8898 33.973 24.2644 33.2206C25.7257 32.4104 26.8543 30.5584 24.221 26.1598C24.221 26.1598 22.6294 23.4252 22.0362 22.5426C21.8336 22.2387 21.5876 21.8336 21.3417 21.3706L17.6087 29.2996H16.6971C16.0171 27.1437 13.3403 18.5781 13.0944 17.7968C13.0365 17.6087 12.9497 17.4351 12.8195 17.2904C12.7037 17.1457 12.5446 17.001 12.3275 16.8852C12.1539 16.784 11.9658 16.6971 11.7343 16.6537C11.5028 16.5959 11.3002 16.5669 11.1121 16.5525V16.046H17.0444V16.5525C16.5669 16.5814 16.1473 16.6971 15.7567 16.8129C15.4094 16.9286 15.2792 17.2759 15.2792 17.4351C15.2792 17.4929 15.2792 17.5797 15.3081 17.681C15.3226 17.7823 15.3515 17.8691 15.366 17.927C15.5252 18.4623 17.1312 23.4686 17.9125 25.9573L20.6761 20.0395C20.6761 20.0395 17.7678 14.2085 22.6873 11.2568C24.3223 10.2729 26.4203 10.6781 27.0424 11.5462C27.245 11.8356 28.4459 13.1523 26.7964 14.9609C26.7964 14.9609 26.8254 13.5284 25.9283 12.4288C25.2338 11.5751 24.1631 10.953 22.7886 11.6909C21.3127 12.5012 20.1986 14.3532 22.832 18.7517C22.832 18.7517 24.438 21.4864 25.0023 22.369C25.4364 23.0201 26.0585 24.0908 26.5071 25.2193C26.8688 24.0763 28.6774 18.1151 28.7208 17.8981C28.7642 17.681 28.7787 17.5074 28.7787 17.3627C28.7787 17.1601 28.6195 16.972 28.3012 16.8418C27.9829 16.6971 27.4765 16.6103 26.7675 16.5525V16.0605H32.0342V16.5525H32.0487Z" fill="#231F20"/>
<path d="M108.415 28.6631H109.5C109.24 29.4733 108.979 30.2836 108.719 31.1083H108.415V28.6631Z" fill="#231F20"/>
<path d="M113.87 31.8463C113.653 31.3978 113.277 31.065 112.336 30.7322C111.179 30.3271 110.73 30.0811 110.687 29.893C110.643 29.7049 110.73 29.3722 111.049 29.0828C111.294 28.8657 111.671 28.7934 111.975 28.7934C112.336 28.7934 112.597 28.8657 112.756 28.996C112.901 29.0972 113.016 29.3722 113.32 30.2403H113.667V28.8513C113.306 28.6487 112.683 28.533 112.061 28.533C111.396 28.533 110.86 28.7355 110.499 29.1696C110.151 29.5747 110.036 30.3126 110.325 30.8769C110.557 31.3399 110.889 31.5859 111.83 31.9332C112.727 32.2659 113.349 32.5119 113.45 32.7579C113.537 32.9749 113.335 33.4958 112.987 33.7418C112.698 33.9443 112.293 34.0601 111.975 34.0601C111.584 34.0601 111.237 33.9588 111.106 33.872C110.976 33.7707 110.831 33.5392 110.484 32.4251C110.368 32.4251 110.238 32.4251 110.137 32.4251V34.0746C110.542 34.2337 111.28 34.335 111.888 34.335C112.597 34.335 113.306 34.0601 113.653 33.6405C114.058 33.1341 114.087 32.3383 113.855 31.8463H113.87Z" fill="#231F20"/>
<path d="M101.513 32.4685L100.949 33.9732H99.0682V31.3833H100.052L100.341 32.3672H100.631V30.1969H100.341L100.052 31.1518H99.0682V28.8802H100.819C100.978 29.2708 101.282 29.9075 101.383 30.1245H101.716V28.6487H97.3609V28.8512H97.9686V33.9732H97.3754V34.2047H101.846V32.4685H101.499H101.513Z" fill="#231F20"/>
<path d="M83.1814 28.6487V28.8513H84.0784C84.0784 28.8513 83.1958 31.3834 82.7618 32.6277H82.6894C82.3711 31.3255 81.7055 28.8368 81.7055 28.8368H82.2843V28.6343H80.0561V28.8368H80.7506L79.5641 32.6856H79.5063L78.3777 28.8368H79.0288V28.6343H76.6993V28.8368H77.2346C77.2346 28.8368 78.3921 32.5264 78.942 34.3206H79.376C79.8535 32.8303 80.765 29.7629 80.765 29.7629H80.8374L82.0673 34.3206H82.4868L84.3823 28.8513H84.961V28.6487H83.1669H83.1814Z" fill="#231F20"/>
<path d="M96.3915 33.9732L96.2323 28.8512H96.7387V28.6487H95.1327L93.4832 32.946H93.4253C93.4253 32.946 92.3546 30.0666 91.8482 28.6487H90.0251V28.8512H90.546L90.3869 33.9588H89.8081V34.2047H91.5878V33.9588H90.6907L90.8499 29.2274H90.8933C91.501 30.9058 92.2099 32.6566 92.8176 34.3205H93.2517L95.1327 29.4879L95.3063 33.9588H94.6841V34.2047H96.9847V33.9588H96.377L96.3915 33.9732Z" fill="#231F20"/>
<path d="M105.869 28.6632V28.8657H106.737V32.3093L104.248 28.6632H102.642V28.8657H103.177V33.9732H102.613V34.2192H104.335V33.9732H103.496V29.7049C103.496 29.7049 105.579 32.8013 106.635 34.335H107.041V28.8512H107.59V28.6487H105.883L105.869 28.6632Z" fill="#231F20"/>
<path d="M87.0735 28.562C85.0913 28.562 84.744 29.951 84.744 31.4558C84.744 32.9606 85.1491 34.3496 87.0735 34.3496C88.9979 34.3496 89.432 32.975 89.432 31.4703C89.432 29.9655 89.0558 28.5765 87.0735 28.5765V28.562ZM88.1297 33.7419C87.9272 34.0168 87.4352 34.0891 87.1025 34.0891C86.7697 34.0891 86.2922 34.0168 86.0896 33.7419C85.8726 32.3818 85.9305 30.3128 86.1041 29.1118C86.3067 28.8948 86.7697 28.7935 87.088 28.7935C87.4063 28.7935 87.8982 28.8803 88.1008 29.1118C88.26 30.3128 88.3323 32.3818 88.1297 33.7419Z" fill="#231F20"/>
<path d="M53.8962 31.8463C53.6792 31.3978 53.303 31.065 52.3625 30.7322C51.205 30.3271 50.7565 30.0811 50.7131 29.893C50.6697 29.7049 50.7565 29.3722 51.0893 29.0828C51.3352 28.8657 51.7114 28.7934 52.0153 28.7934C52.377 28.7934 52.6375 28.8657 52.7966 28.996C52.9413 29.0972 53.0571 29.3722 53.3609 30.2403H53.7081V28.8513C53.3464 28.6487 52.7243 28.533 52.1021 28.533C51.451 28.533 50.9012 28.7355 50.5395 29.1696C50.1922 29.5747 50.0765 30.3126 50.3658 30.8769C50.5973 31.3399 50.9301 31.5859 51.8706 31.9332C52.7677 32.2659 53.3754 32.5119 53.4766 32.7579C53.5635 32.9749 53.3609 33.4958 53.0136 33.7418C52.7243 33.9443 52.3191 34.0601 52.0008 34.0601C51.6102 34.0601 51.2629 33.9588 51.1327 33.872C51.0025 33.7707 50.8578 33.5392 50.525 32.4251C50.4092 32.4251 50.279 32.4251 50.1777 32.4251V34.0746C50.5829 34.2337 51.3208 34.335 51.9285 34.335C52.6375 34.335 53.3464 34.0601 53.6937 33.6405C54.0988 33.1341 54.1133 32.3383 53.8818 31.8463H53.8962Z" fill="#231F20"/>
<path d="M58.5118 32.4685L57.9475 33.9732H56.081V31.3833H57.0649L57.3543 32.3672H57.6437V30.1969H57.3543L57.0649 31.1518H56.081V28.8802H57.8318C57.9909 29.2708 58.2948 29.9075 58.3961 30.1245H58.7289V28.6487H54.3737V28.8512H54.9814V33.9732H54.3882V34.2047H58.8591V32.4685H58.5263H58.5118Z" fill="#231F20"/>
<path d="M67.7141 28.6487V28.8513H68.3218C68.3218 28.8513 68.3218 32.0055 68.3218 32.4107C68.3218 32.5843 68.3218 32.8303 68.2928 33.2065C68.2494 33.5826 68.1915 33.7997 68.1047 33.8865C68.0034 33.9733 67.7141 34.0746 67.28 34.0746C66.8459 34.0746 66.5421 33.9733 66.4553 33.8865C66.354 33.7997 66.2961 33.6405 66.2382 33.2354C66.1948 32.8592 66.1948 32.5988 66.1948 32.3962C66.1948 31.9766 66.1948 28.8368 66.1948 28.8368H66.7736V28.6343H64.473V28.8368H65.1097C65.1097 28.8368 65.1097 30.7757 65.1097 32.3673C65.1097 33.2209 65.4569 34.3206 67.28 34.3206C69.0018 34.3206 69.4359 33.2499 69.4359 32.4107C69.4359 31.8464 69.4359 28.8368 69.4359 28.8368H70.0291V28.6343H67.7285L67.7141 28.6487Z" fill="#231F20"/>
<path d="M61.7818 28.562C59.7996 28.562 59.4523 29.951 59.4523 31.4558C59.4523 32.9606 59.8575 34.3496 61.7818 34.3496C63.7062 34.3496 64.1403 32.975 64.1403 31.4703C64.1403 29.9655 63.7641 28.5765 61.7818 28.5765V28.562ZM62.8525 33.7419C62.65 34.0168 62.1725 34.0891 61.8252 34.0891C61.478 34.0891 61.015 34.0168 60.8124 33.7419C60.5954 32.3818 60.6533 30.3128 60.8269 29.1118C61.0294 28.8948 61.5069 28.7935 61.8108 28.7935C62.1146 28.7935 62.621 28.8803 62.8236 29.1118C62.9827 30.3128 63.0406 32.3818 62.8525 33.7419Z" fill="#231F20"/>
<path d="M74.2395 32.1935L73.6608 33.9732H71.8956V28.8512H72.8794V28.6631H70.2027V28.8512H70.8104V33.9732H70.2027V34.2047H74.5723V32.1935H74.2395Z" fill="#231F20"/>
<path d="M149.203 31.8463C148.986 31.3978 148.61 31.065 147.669 30.7322C146.512 30.3271 146.063 30.0811 146.02 29.893C145.976 29.7049 146.063 29.3722 146.396 29.0828C146.642 28.8657 147.018 28.7934 147.337 28.7934C147.684 28.7934 147.944 28.8657 148.118 28.996C148.263 29.0972 148.378 29.3722 148.682 30.2403H149.029V28.8513C148.668 28.6487 148.031 28.533 147.423 28.533C146.772 28.533 146.222 28.7355 145.875 29.1696C145.528 29.5747 145.412 30.3126 145.702 30.8769C145.933 31.3399 146.266 31.5859 147.221 31.9332C148.103 32.2659 148.726 32.5119 148.827 32.7579C148.914 32.9749 148.711 33.4958 148.364 33.7418C148.074 33.9443 147.669 34.0601 147.351 34.0601C146.96 34.0601 146.613 33.9588 146.483 33.872C146.353 33.7707 146.208 33.5392 145.875 32.4251C145.745 32.4251 145.629 32.4251 145.513 32.4251V34.0746C145.919 34.2337 146.657 34.335 147.264 34.335C147.973 34.335 148.682 34.0601 149.029 33.6405C149.435 33.1341 149.449 32.3383 149.232 31.8463H149.203Z" fill="#231F20"/>
<path d="M152.256 28.8512V28.6487H149.941V28.8512H150.563V33.9732H149.941V34.2047H152.242V33.9732H151.634V28.8512H152.256Z" fill="#231F20"/>
<path d="M160.764 28.6487V28.8512H161.588L160.373 30.8769L159.317 28.8512H159.881V28.6487H157.508V28.8512H158.058L159.462 31.4991V33.9732H158.637V34.2047H161.386V33.9732H160.547V31.1952L161.936 28.8512H162.587V28.6487H160.764Z" fill="#231F20"/>
<path d="M152.545 28.6487V30.385H152.878L153.544 28.8947H154.412V33.9732H153.645V34.2047H156.307V33.9732H155.497V28.8947H156.365L157.031 30.385H157.378V28.6487H152.545Z" fill="#231F20"/>
<path d="M139.06 32.4685L138.496 33.9732H136.63V31.3833H137.613L137.903 32.3672H138.192V30.1969H137.903L137.613 31.1518H136.63V28.8947H138.38C138.539 29.2998 138.843 29.9075 138.945 30.139H139.277V28.6632C139.277 28.6632 133.967 28.6632 133.374 28.6632V28.8657H134.257L132.868 32.7579L131.652 28.8512H132.289V28.6487H127.688V28.8512H128.295V33.9732H127.688V34.2047H129.988V33.9732H129.381V28.8512H130.524L132.274 34.335H132.651L134.546 28.8657H135.53V33.9732H134.937V34.2047H139.408V32.4685H139.06Z" fill="#231F20"/>
<path d="M125.546 28.6632V28.8657H126.4V32.3093L123.911 28.6632H122.305V28.8657H122.841V33.9732H122.276V34.2192H123.998V33.9732H123.159V29.7049C123.159 29.7049 125.243 32.8013 126.284 34.335H126.689V28.8512H127.239V28.6487H125.532L125.546 28.6632Z" fill="#231F20"/>
<path d="M144.631 33.9732C144.544 33.9732 144.472 33.8719 144.313 33.597C144.139 33.2931 143.415 32.0633 143.141 31.4701C144.023 31.3254 144.472 30.8045 144.472 30.081C144.472 29.0248 143.589 28.6631 142.432 28.6631C142.157 28.6631 140.58 28.6631 140.102 28.6631V28.8657H140.739V33.9877H140.102V34.2192H141.766V31.5135H142.099C142.099 31.5135 142.793 33.134 143.227 33.7996C143.387 34.0455 143.517 34.1902 143.676 34.2192H145.094V33.9732H144.616H144.631ZM141.766 31.253V28.8801H142.678C142.851 28.8801 143.068 28.9091 143.17 28.9814C143.314 29.0972 143.358 29.5023 143.358 30.0087C143.358 30.5151 143.329 30.9926 143.227 31.0939C143.141 31.1662 142.952 31.2386 142.692 31.2386H141.781L141.766 31.253Z" fill="#231F20"/>
<path d="M119.759 28.6487V28.8513H120.352V32.4107C120.352 32.5843 120.352 32.8303 120.323 33.2065C120.28 33.5826 120.222 33.7997 120.135 33.8865C120.034 33.9733 119.744 34.0746 119.31 34.0746C118.876 34.0746 118.572 33.9733 118.486 33.8865C118.384 33.7997 118.326 33.6405 118.269 33.2354C118.225 32.8592 118.225 32.5988 118.225 32.3962C118.225 31.9766 118.225 28.8368 118.225 28.8368H118.804V28.6343H116.503V28.8368H117.14C117.14 28.8368 117.14 30.7757 117.14 32.3673C117.14 33.2209 117.487 34.3206 119.31 34.3206C121.032 34.3206 121.481 33.2499 121.481 32.4107C121.481 31.8464 121.495 28.8368 121.495 28.8368H122.088V28.6343H119.788L119.759 28.6487Z" fill="#231F20"/>
<path d="M132.665 21.5154H143.589V25.1616H145.673V20.2566H132.665V21.5154Z" fill="#231F20"/>
<path d="M60.7979 10.5045C60.7979 10.5045 62.0133 10.6782 62.0133 11.2859V15.4674H57.3543L56.0376 13.2826L57.0939 10.3454H52.8979V10.8229C52.8979 10.8229 54.5763 11.1122 54.4895 12.0817L50.1777 23.5555H52.3191L55.2853 15.3516L60.0745 23.5555H61.9988V25.1616H64.1402V10.1428H60.7835V10.5045H60.7979ZM58.0922 16.6972H62.0133V23.1938L58.0922 16.6972Z" fill="#231F20"/>
<path d="M148.147 16.6973V15.4675H145.673V10.1284H142.388V10.4901C142.388 10.4901 143.604 10.6638 143.604 11.2715V19.3596H145.687V16.6828H148.161L148.147 16.6973Z" fill="#231F20"/>
<path d="M111.873 10.1429H108.56V10.5046C108.56 10.5046 109.775 10.6782 109.775 11.2859V23.1939L104.161 13.3116L104.523 12.2988H108.14V11.0255H98.8512V12.2988H102.454L98.3882 23.5556H100.587L103.423 15.4819L107.865 23.5556H109.804V25.1616H111.917V16.6973H114.434V15.4675H111.917V10.1284L111.873 10.1429Z" fill="#231F20"/>
<path d="M93.353 10.5045C93.353 10.5045 94.5684 10.6782 94.5684 11.2859V11.9804L89.2294 11.8646C88.9255 11.7489 88.6072 11.6476 88.2744 11.5897L88.3902 10.2152H85.6989V10.5914C85.6989 10.5914 86.2343 10.6203 86.2054 11.0978V11.5897C83.8759 12.0238 82.1251 13.8903 82.1251 16.1474C82.1251 18.7084 84.4112 20.792 87.2182 20.792C88.8098 20.792 90.2277 20.1264 91.1537 19.0991H94.5829V25.176H96.7243V10.1428H93.3819V10.5045H93.353ZM87.2037 19.3161C85.6411 19.3161 84.3678 17.8837 84.3678 16.133C84.3678 14.3822 85.6411 12.9498 87.2037 12.9498C88.7664 12.9498 90.0396 14.3822 90.0396 16.133C90.0396 17.8837 88.7664 19.3161 87.2037 19.3161ZM94.5684 17.7535H91.9785C92.181 17.2471 92.2968 16.7117 92.2968 16.133C92.2968 15.0044 91.8627 13.9771 91.1393 13.1813H94.5684V17.7535Z" fill="#231F20"/>
<path d="M132.188 15.2938C132.188 17.4207 134.242 19.1425 136.774 19.1425C139.306 19.1425 141.375 17.4207 141.375 15.2938C141.375 14.0784 140.71 13.0077 139.668 12.2987H142.084V11.1701H137.744L137.975 9.92578H135.313V10.302C135.313 10.302 135.848 10.3309 135.819 10.8084V11.1701H131.565V12.2987H133.88C132.853 13.0077 132.188 14.0784 132.188 15.2938ZM136.774 12.4578C138.149 12.4578 139.248 13.6588 139.248 15.1346C139.248 16.6104 138.134 17.8113 136.774 17.8113C135.414 17.8113 134.3 16.6104 134.3 15.1346C134.3 13.6588 135.414 12.4578 136.774 12.4578Z" fill="#231F20"/>
<path d="M126.299 10.5045C126.299 10.5045 127.514 10.6782 127.514 11.2859V15.4674H125.373V10.1428H122.088V10.5045C122.088 10.5045 123.304 10.6782 123.304 11.2859V18.7374L117.805 20.0685V12.2987H121.524V11.0254H114.174V11.4306C114.174 11.4306 115.693 11.5897 115.809 12.2987V21.9639L123.304 20.1987V25.1471H125.387V16.6828H127.529V25.1471H129.612V10.1428H126.328V10.5045H126.299Z" fill="#231F20"/>
<path d="M160.807 23.1503L161.227 10.8083H148.885V12.0961H159.114L158.738 23.1359H156.814V15.4818H153.775V15.8435C153.775 15.8435 154.788 15.858 154.788 16.6249V23.1359H152.748V15.4818H149.709V15.8435C149.709 15.8435 150.722 15.858 150.722 16.6249V23.1359H148.147V24.4236H162.587V23.1359H160.807V23.1503Z" fill="#231F20"/>
<path d="M78.6815 13.4852C78.6815 11.6331 76.9886 10.0994 74.717 9.69431L74.8472 8.82617H71.9245V9.20236C71.9245 9.20236 72.4454 9.2313 72.4309 9.67984C70.1448 10.0705 68.423 11.6187 68.423 13.4852C68.423 14.4546 68.9005 15.3372 69.6674 16.0317H66.0067V17.3918H72.3441V18.7084H67.1208V20.0251H77.3938V21.1826H67.1208V25.0314H80.2152V23.7147H69.378V22.5282H79.6509V18.7084H74.4276V17.3918H81.0544V16.0317H77.4372C78.204 15.3517 78.6815 14.4546 78.6815 13.4852ZM73.5595 16.0896C71.939 16.0896 70.6368 14.9176 70.6368 13.4707C70.6368 12.0238 71.939 10.8518 73.5595 10.8518C75.18 10.8518 76.4822 12.0238 76.4822 13.4707C76.4822 14.9176 75.18 16.0896 73.5595 16.0896Z" fill="#231F20"/>
</svg>
